<?xml version="1.0" encoding="utf-8"?>
<!-- Generator: Adobe Illustrator 17.0.0, SVG Export Plug-In . SVG Version: 6.00 Build 0)  -->
<!DOCTYPE svg PUBLIC "-//W3C//DTD SVG 1.1//EN" "http://www.w3.org/Graphics/SVG/1.1/DTD/svg11.dtd">
<svg version="1.1" xmlns="http://www.w3.org/2000/svg" xmlns:xlink="http://www.w3.org/1999/xlink" x="0px" y="0px" width="1000px"
	 height="1000px" viewBox="0 0 1000 1000" enable-background="new 0 0 1000 1000" xml:space="preserve">
<g id="Слой_1">
	<g id="Слой_4">
		<g id="Слой_1_2_">
			<path display="none" fill="#86589F" stroke="#F5F7F7" stroke-miterlimit="10" d="M979.3,966.5c0,6.6-5.4,12-12,12H34.7
				c-6.6,0-12-5.4-12-12v-931c0-6.6,5.4-12,12-12h932.7c6.6,0,12,5.4,12,12v931H979.3z"/>
			<circle fill="#86589F" stroke="#F5F7F7" stroke-miterlimit="10" cx="501" cy="501" r="486.6"/>
		</g>
	</g>
	
		<line display="none" fill="none" stroke="#444A65" stroke-width="5" stroke-miterlimit="10" x1="492.5" y1="69.922" x2="1034.4" y2="344.422"/>
	
		<line display="none" fill="none" stroke="#444A65" stroke-width="5" stroke-miterlimit="10" x1="126.188" y1="769.281" x2="668.088" y2="1043.781"/>
	<polygon opacity="0.2" fill="#101111" points="624.082,128.598 576.894,206.029 496.244,309.065 362.679,236.266 257.834,427.083 
		198.722,464.926 203.814,557.618 198.722,800.991 551.967,984.96 603.872,974.809 674.252,956.36 724.816,931.761 799.979,885.296 
		847.127,841.565 897.494,783.149 929.806,728.82 955.772,672.79 972.854,620.175 983.11,567.372 987.6,508.114 985.837,458.233 
		976.954,408.352 972.171,376.237 964.413,352.162 945.948,309.065 	"/>
</g>
<g id="Слой_2">
	<g>
		<rect x="208.023" y="473.319" fill="#FFFFFF" width="109.01" height="319.32"/>
		<path fill="#33404E" d="M307.033,483.319v299.32h-89.009v-299.32H307.033 M327.033,463.319h-20h-89.009h-20v20v299.32v20h20
			h89.009h20v-20v-299.32V463.319L327.033,463.319z"/>
	</g>
	<g>
		<rect x="219.023" y="735.306" fill="#51B093" width="85.947" height="47.011"/>
		<path fill="#333F4C" d="M303.97,736.305v45.011h-83.946v-45.011H303.97 M305.97,734.305h-87.946v49.011h87.946V734.305
			L305.97,734.305z"/>
	</g>
	<g>
		<rect x="328.666" y="350.603" fill="#FFFFFF" width="105.003" height="441.728"/>
		<path fill="#33404E" d="M423.669,360.603v421.728h-85.003V360.603H423.669 M443.669,340.603h-20h-85.003h-20v20v421.728v20h20
			h85.003h20v-20V360.603V340.603L443.669,340.603z"/>
	</g>
	<g>
		<rect x="339.666" y="682.378" fill="#51B093" width="83.003" height="99.602"/>
		<path fill="#333F4C" d="M421.669,683.378v97.601h-81.003v-97.601H421.669 M423.669,681.378h-85.003v101.601h85.003V681.378
			L423.669,681.378z"/>
	</g>
	<g>
		<rect x="446.58" y="372.551" fill="#FFFFFF" width="109.009" height="419.901"/>
		<path fill="#33404E" d="M545.589,382.551v399.902H456.58V382.551H545.589 M565.589,362.551h-20H456.58h-20v20v399.902v20h20
			h89.009h20v-20V382.551V362.551L565.589,362.551z"/>
	</g>
	<g>
		<rect x="457.58" y="633.979" fill="#51B093" width="87.009" height="148"/>
		<path fill="#333F4C" d="M543.589,634.979v146H458.58v-146H543.589 M545.589,632.979H456.58v150h89.009V632.979L545.589,632.979z"
			/>
	</g>
	<g>
		<rect x="565.381" y="256.87" fill="#FFFFFF" width="109.009" height="535.356"/>
		<path fill="#33404E" d="M664.39,266.869v515.356h-89.009V266.869H664.39 M684.39,246.869h-20h-89.009h-20v20v515.356v20h20h89.009
			h20v-20V266.869V246.869L684.39,246.869z"/>
	</g>
	<g>
		<rect x="576.381" y="551.265" fill="#51B093" width="87.009" height="230.715"/>
		<path fill="#333F4C" d="M662.39,552.265v228.714h-85.009V552.265H662.39 M664.39,550.265h-89.009v232.714h89.009V550.265
			L664.39,550.265z"/>
	</g>
	<g>
		<rect x="685.052" y="342.162" fill="#FFFFFF" width="109.009" height="450.42"/>
		<path fill="#33404E" d="M784.061,352.162v430.42h-89.009v-430.42H784.061 M804.061,332.162h-20h-89.009h-20v20v430.42v20h20
			h89.009h20v-20v-430.42V332.162L804.061,332.162z"/>
	</g>
	<g>
		<rect x="696.052" y="474.019" fill="#51B093" width="87.009" height="308.129"/>
		<path fill="#333F4C" d="M782.061,475.019v306.13h-85.009v-306.13H782.061 M784.061,473.019h-89.009v310.13h89.009V473.019
			L784.061,473.019z"/>
	</g>
	
		<line fill="none" stroke="#333F4C" stroke-width="10" stroke-miterlimit="10" x1="257.834" y1="427.083" x2="370.436" y2="239.297"/>
	
		<line fill="none" stroke="#333F4C" stroke-width="10" stroke-miterlimit="10" x1="370.436" y1="239.297" x2="496.244" y2="305.309"/>
	
		<line fill="none" stroke="#333F4C" stroke-width="10" stroke-miterlimit="10" x1="496.244" y1="305.309" x2="612.221" y2="162.541"/>
	
		<line fill="none" stroke="#333F4C" stroke-width="10" stroke-miterlimit="10" x1="612.221" y1="162.541" x2="739.556" y2="266.869"/>
	<circle fill="#FFFFFF" stroke="#333F4C" stroke-width="10" stroke-miterlimit="10" cx="257.834" cy="427.083" r="21.545"/>
	<circle fill="#FFFFFF" stroke="#333F4C" stroke-width="10" stroke-miterlimit="10" cx="370.436" cy="239.297" r="26.702"/>
	<circle fill="#FFFFFF" stroke="#333F4C" stroke-width="10" stroke-miterlimit="10" cx="496.244" cy="305.309" r="34.402"/>
	<circle fill="#FFFFFF" stroke="#333F4C" stroke-width="10" stroke-miterlimit="10" cx="739.556" cy="266.869" r="42.196"/>
	<circle fill="#FFFFFF" stroke="#333F4C" stroke-width="10" stroke-miterlimit="10" cx="612.221" cy="162.541" r="35.327"/>
</g>
</svg>
