<?xml version="1.0" encoding="utf-8"?>
<!-- Generator: Adobe Illustrator 17.0.0, SVG Export Plug-In . SVG Version: 6.00 Build 0)  -->
<!DOCTYPE svg PUBLIC "-//W3C//DTD SVG 1.1//EN" "http://www.w3.org/Graphics/SVG/1.1/DTD/svg11.dtd">
<svg version="1.1" xmlns="http://www.w3.org/2000/svg" xmlns:xlink="http://www.w3.org/1999/xlink" x="0px" y="0px"
	 width="1178.3px" height="569.8px" viewBox="0 0 1178.3 569.8" style="enable-background:new 0 0 1178.3 569.8;"
	 xml:space="preserve">
<style type="text/css">
	.st0{fill:none;}
	.st1{fill:#B4B9B5;}
	.st2{fill:#FFFFFF;}
	.st3{fill:none;stroke:#7F7E7C;stroke-width:0.2959;stroke-linecap:round;stroke-linejoin:round;stroke-miterlimit:10;}
	.st4{fill:#A14944;}
	.st5{fill:#7F7E7C;}
	.st6{fill:#E9A854;}
	.st7{fill:#74B65F;}
	.st8{fill:#EEEEEE;}
	.st9{fill:none;stroke:#7F7E7C;stroke-width:0.25;stroke-miterlimit:10;}
	.st10{fill:#EEEEEE;stroke:#7F7E7C;stroke-width:0.25;stroke-miterlimit:10;}
	.st11{fill:none;stroke:#7F7E7C;stroke-width:0.25;stroke-linecap:round;stroke-linejoin:round;stroke-miterlimit:10;}
	.st12{fill:none;stroke:#979695;stroke-width:0.25;stroke-linecap:round;stroke-linejoin:round;stroke-miterlimit:10;}
	.st13{fill:#9A9B9B;stroke:#7F7E7C;stroke-width:0.25;stroke-miterlimit:10;}
	.st14{fill:none;stroke:#595651;stroke-width:0.5;stroke-miterlimit:10;}
	.st15{fill:none;stroke:#6B6966;stroke-width:0.25;stroke-miterlimit:10;}
	.st16{fill:#54A161;}
	.st17{fill:#363837;}
	.st18{fill:#F2F4F4;stroke:#272624;stroke-width:2;stroke-miterlimit:10;}
	.st19{fill:#474848;}
	.st20{fill:#474848;stroke:#272624;stroke-miterlimit:10;}
	.st21{stroke:#272624;stroke-width:0.6708;stroke-miterlimit:10;}
	.st22{fill:#4C7EAA;}
	.st23{fill:#54A78D;}
	.st24{fill:#CA5951;}
	.st25{fill:none;stroke:#6B6966;stroke-miterlimit:10;}
	.st26{fill:none;stroke:#979695;stroke-width:0.5;stroke-miterlimit:10;}
	.st27{fill:#373837;stroke:#272624;stroke-width:1.6901;stroke-miterlimit:10;}
	.st28{fill:#373837;stroke:#7F7E7C;stroke-width:0.4277;stroke-miterlimit:10;}
	.st29{fill:#AFAFAF;stroke:#6B6966;stroke-width:0.2613;stroke-miterlimit:10;}
	.st30{fill:#AFAFAF;stroke:#6B6966;stroke-width:0.3173;stroke-miterlimit:10;}
	
		.st31{fill:none;stroke:url(#Unnamed_Pattern);stroke-width:0.2382;stroke-linecap:round;stroke-linejoin:round;stroke-miterlimit:10;}
	.st32{fill:none;stroke:#7F7E7C;stroke-width:0.2288;stroke-linecap:round;stroke-linejoin:round;stroke-miterlimit:10;}
	.st33{fill:none;stroke:#595651;stroke-width:0.2179;stroke-miterlimit:10;}
	.st34{fill:none;stroke:url(#Unnamed_Pattern);stroke-width:0.1623;stroke-miterlimit:10;}
	.st35{fill:none;stroke:#6B6966;stroke-width:0.2502;stroke-miterlimit:10;}
	.st36{fill:#474848;stroke:#272624;stroke-width:1.9452;stroke-miterlimit:10;}
	.st37{fill:#EDEFF1;}
	.st38{fill:none;stroke:#979695;stroke-width:0.3714;stroke-miterlimit:10;}
	.st39{display:none;fill:none;stroke:#D24A43;stroke-width:4;stroke-miterlimit:10;}
	.st40{opacity:0.2;fill:#FFFFFF;}
</style>
<pattern  width="444.7" height="18.5" patternUnits="userSpaceOnUse" id="Unnamed_Pattern" viewBox="0 -18.5 444.7 18.5" style="overflow:visible;">
	<g>
		<polygon class="st0" points="0,0 444.7,0 444.7,-18.5 0,-18.5 		"/>
		<polygon class="st1" points="444.6,0 0,0 0,-17.2 0,-18.5 1.3,-18.5 444.6,-18.5 		"/>
		<g>
			<path class="st2" d="M302.6-5.6c0,0.3-0.3,0.6-0.6,0.6H139.2c-0.3,0-0.6-0.3-0.6-0.6v-8.3c0-0.3,0.3-0.6,0.6-0.6H302
				c0.3,0,0.6,0.3,0.6,0.6V-5.6z"/>
			<path class="st3" d="M302.6-5.6c0,0.3-0.3,0.6-0.6,0.6H139.2c-0.3,0-0.6-0.3-0.6-0.6v-8.3c0-0.3,0.3-0.6,0.6-0.6H302
				c0.3,0,0.6,0.3,0.6,0.6V-5.6z"/>
		</g>
		<g>
			<path class="st4" d="M13.9-7.1c-1.4,0-2.6-1.2-2.6-2.6s1.2-2.6,2.6-2.6s2.6,1.2,2.6,2.6S15.3-7.1,13.9-7.1z"/>
			<path class="st5" d="M13.9-12.2c-1.4,0-2.5,1.1-2.5,2.5s1.1,2.5,2.5,2.5s2.5-1.1,2.5-2.5S15.2-12.2,13.9-12.2 M13.9-12.5
				c1.5,0,2.7,1.2,2.7,2.7S15.4-7,13.9-7s-2.7-1.2-2.7-2.7S12.3-12.5,13.9-12.5L13.9-12.5z"/>
		</g>
		<g>
			<path class="st6" d="M22.2-7.1c-1.4,0-2.6-1.2-2.6-2.6s1.2-2.6,2.6-2.6s2.6,1.2,2.6,2.6S23.7-7.1,22.2-7.1z"/>
			<path class="st5" d="M22.2-12.2c-1.4,0-2.5,1.1-2.5,2.5s1.1,2.5,2.5,2.5s2.5-1.1,2.5-2.5S23.6-12.2,22.2-12.2 M22.2-12.5
				c1.5,0,2.7,1.2,2.7,2.7S23.7-7,22.2-7s-2.7-1.2-2.7-2.7S20.7-12.5,22.2-12.5L22.2-12.5z"/>
		</g>
		<g>
			<path class="st7" d="M30-7.1c-1.4,0-2.6-1.2-2.6-2.6s1.2-2.6,2.6-2.6s2.6,1.2,2.6,2.6S31.5-7.1,30-7.1z"/>
			<path class="st5" d="M30-12.2c-1.4,0-2.5,1.1-2.5,2.5s1.1,2.5,2.5,2.5s2.5-1.1,2.5-2.5S31.4-12.2,30-12.2 M30-12.5
				c1.5,0,2.7,1.2,2.7,2.7S31.5-7,30-7s-2.7-1.2-2.7-2.7S28.5-12.5,30-12.5L30-12.5z"/>
		</g>
		<g>
			<path class="st8" d="M51.4-5.6c0,0.3-0.3,0.6-0.6,0.6h-9.1c-0.3,0-0.6-0.3-0.6-0.6v-8.3c0-0.3,0.3-0.6,0.6-0.6h9.1
				c0.3,0,0.6,0.3,0.6,0.6V-5.6z"/>
			<path class="st9" d="M51.4-5.6c0,0.3-0.3,0.6-0.6,0.6h-9.1c-0.3,0-0.6-0.3-0.6-0.6v-8.3c0-0.3,0.3-0.6,0.6-0.6h9.1
				c0.3,0,0.6,0.3,0.6,0.6V-5.6z"/>
		</g>
		<g>
			<path class="st8" d="M62.1-5.6c0,0.3-0.3,0.6-0.6,0.6h-9.1c-0.3,0-0.6-0.3-0.6-0.6v-8.3c0-0.3,0.3-0.6,0.6-0.6h9.1
				c0.3,0,0.6,0.3,0.6,0.6V-5.6z"/>
			<path class="st9" d="M62.1-5.6c0,0.3-0.3,0.6-0.6,0.6h-9.1c-0.3,0-0.6-0.3-0.6-0.6v-8.3c0-0.3,0.3-0.6,0.6-0.6h9.1
				c0.3,0,0.6,0.3,0.6,0.6V-5.6z"/>
		</g>
		<g>
			<path class="st8" d="M79.6-5.6c0,0.4-0.3,0.6-0.6,0.6H68.1c-0.4,0-0.6-0.3-0.6-0.6v-8.2c0-0.4,0.3-0.6,0.6-0.6h10.9
				c0.4,0,0.6,0.3,0.6,0.6V-5.6z"/>
			<path class="st9" d="M79.6-5.6c0,0.4-0.3,0.6-0.6,0.6H68.1c-0.4,0-0.6-0.3-0.6-0.6v-8.2c0-0.4,0.3-0.6,0.6-0.6h10.9
				c0.4,0,0.6,0.3,0.6,0.6V-5.6z"/>
		</g>
		<polygon class="st10" points="77.4,-7 69.4,-7 69.4,-12.5 77.4,-12.5 		"/>
		<line class="st11" x1="71.2" y1="-12.5" x2="71.2" y2="-7"/>
		<line class="st12" x1="55.1" y1="-10.9" x2="58.2" y2="-8.9"/>
		<line class="st12" x1="47.1" y1="-11.2" x2="43.6" y2="-9"/>
		<line class="st12" x1="43.6" y1="-9" x2="47.1" y2="-7.3"/>
		<polygon class="st13" points="444.6,-0.4 434.1,-0.4 434.1,-9.6 444.6,-9.6 		"/>
		<line class="st14" x1="436.1" y1="-5" x2="442.7" y2="-5"/>
		<line class="st14" x1="439.4" y1="-8" x2="439.4" y2="-2.4"/>
		<g>
			<path class="st8" d="M426.3-5.2c0,0.4-0.3,0.6-0.6,0.6h-10.9c-0.4,0-0.6-0.3-0.6-0.6v-8.2c0-0.4,0.3-0.6,0.6-0.6h10.9
				c0.4,0,0.6,0.3,0.6,0.6V-5.2z"/>
			<path class="st9" d="M426.3-5.2c0,0.4-0.3,0.6-0.6,0.6h-10.9c-0.4,0-0.6-0.3-0.6-0.6v-8.2c0-0.4,0.3-0.6,0.6-0.6h10.9
				c0.4,0,0.6,0.3,0.6,0.6V-5.2z"/>
		</g>
		<polygon class="st10" points="423.9,-7.9 419.2,-7.9 419.2,-11.8 423.9,-11.8 		"/>
		<polygon class="st10" points="421.6,-5.9 416.8,-5.9 416.8,-9.8 421.6,-9.8 		"/>
		<polygon class="st10" points="407.4,-5.9 402.4,-5.9 402.4,-10.1 407.4,-10.1 		"/>
		<line class="st9" x1="404.9" y1="-10.1" x2="404.9" y2="-12.4"/>
		<line class="st9" x1="404.9" y1="-12.4" x2="405.7" y2="-11.4"/>
		<line class="st9" x1="404.9" y1="-12.4" x2="404.3" y2="-11.4"/>
		<line class="st12" x1="58.2" y1="-8.9" x2="55.1" y2="-7.1"/>
		<line class="st15" x1="298.7" y1="-11.1" x2="295.8" y2="-7.3"/>
		<line class="st15" x1="295.8" y1="-11.1" x2="298.7" y2="-7.3"/>
	</g>
</pattern>
<g id="Слой_1">
	<rect x="1" class="st16" width="1177.3" height="569.8"/>
</g>
<g id="Laptop">
	<g id="Слой_2">
		<path class="st17" d="M889.6,512.1c0,8.6-7,15.6-15.6,15.6H406c-8.6,0-15.6-7-15.6-15.6V188.8c0-8.6,7-15.6,15.6-15.6H874
			c8.6,0,15.6,7,15.6,15.6V512.1z"/>
		<rect x="418.8" y="201" class="st18" width="444.6" height="300"/>
		<polygon class="st17" points="971.5,538.9 957.8,547.3 317,547.3 305,537.4 295.1,530.7 295.1,514 984.9,514 984.9,530.7 		"/>
		<polygon class="st19" points="984.9,530.7 295.1,530.7 295.1,514 593.5,514 603.3,518 640,518 674.7,518 684.1,514 984.9,514 		
			"/>
		<circle class="st20" cx="639.3" cy="185.5" r="5.4"/>
		<circle class="st21" cx="639.3" cy="185.5" r="3.6"/>
		<polygon class="st1" points="862.4,219.5 419.9,219.5 419.9,203.2 419.9,202 421.2,202 862.4,202 		"/>
		<rect x="450.1" y="231.2" class="st22" width="378.4" height="168.8"/>
		<rect x="450.1" y="415" class="st1" width="241.8" height="73.2"/>
		<rect x="700.2" y="415" class="st23" width="125.9" height="32.8"/>
		<rect x="700.2" y="455.1" class="st24" width="125.9" height="33.1"/>
	</g>
	<g id="Слой_3">
		<g>
			<path class="st2" d="M721.3,213.9c0,0.3-0.3,0.6-0.6,0.6H557.9c-0.3,0-0.6-0.3-0.6-0.6v-8.3c0-0.3,0.3-0.6,0.6-0.6h162.8
				c0.3,0,0.6,0.3,0.6,0.6V213.9z"/>
			<path class="st3" d="M721.3,213.9c0,0.3-0.3,0.6-0.6,0.6H557.9c-0.3,0-0.6-0.3-0.6-0.6v-8.3c0-0.3,0.3-0.6,0.6-0.6h162.8
				c0.3,0,0.6,0.3,0.6,0.6V213.9z"/>
		</g>
		<g>
			<circle class="st4" cx="432.6" cy="209.8" r="2.6"/>
			<path class="st5" d="M432.6,207.3c1.4,0,2.5,1.1,2.5,2.5s-1.1,2.5-2.5,2.5s-2.5-1.1-2.5-2.5S431.2,207.3,432.6,207.3 M432.6,207
				c-1.5,0-2.7,1.2-2.7,2.7s1.2,2.7,2.7,2.7s2.7-1.2,2.7-2.7S434.1,207,432.6,207L432.6,207z"/>
		</g>
		<g>
			<circle class="st6" cx="441" cy="209.8" r="2.6"/>
			<path class="st5" d="M441,207.3c1.4,0,2.5,1.1,2.5,2.5s-1.1,2.5-2.5,2.5s-2.5-1.1-2.5-2.5S439.6,207.3,441,207.3 M441,207
				c-1.5,0-2.7,1.2-2.7,2.7s1.2,2.7,2.7,2.7s2.7-1.2,2.7-2.7S442.5,207,441,207L441,207z"/>
		</g>
		<g>
			<circle class="st7" cx="448.8" cy="209.8" r="2.6"/>
			<path class="st5" d="M448.8,207.3c1.4,0,2.5,1.1,2.5,2.5s-1.1,2.5-2.5,2.5s-2.5-1.1-2.5-2.5S447.4,207.3,448.8,207.3 M448.8,207
				c-1.5,0-2.7,1.2-2.7,2.7s1.2,2.7,2.7,2.7s2.7-1.2,2.7-2.7S450.3,207,448.8,207L448.8,207z"/>
		</g>
		<g>
			<path class="st8" d="M470.2,213.9c0,0.3-0.3,0.6-0.6,0.6h-9.1c-0.3,0-0.6-0.3-0.6-0.6v-8.3c0-0.3,0.3-0.6,0.6-0.6h9.1
				c0.3,0,0.6,0.3,0.6,0.6V213.9z"/>
			<path class="st9" d="M470.2,213.9c0,0.3-0.3,0.6-0.6,0.6h-9.1c-0.3,0-0.6-0.3-0.6-0.6v-8.3c0-0.3,0.3-0.6,0.6-0.6h9.1
				c0.3,0,0.6,0.3,0.6,0.6V213.9z"/>
		</g>
		<g>
			<path class="st8" d="M480.8,213.9c0,0.3-0.3,0.6-0.6,0.6h-9.1c-0.3,0-0.6-0.3-0.6-0.6v-8.3c0-0.3,0.3-0.6,0.6-0.6h9.1
				c0.3,0,0.6,0.3,0.6,0.6V213.9z"/>
			<path class="st9" d="M480.8,213.9c0,0.3-0.3,0.6-0.6,0.6h-9.1c-0.3,0-0.6-0.3-0.6-0.6v-8.3c0-0.3,0.3-0.6,0.6-0.6h9.1
				c0.3,0,0.6,0.3,0.6,0.6V213.9z"/>
		</g>
		<g>
			<path class="st8" d="M498.3,213.9c0,0.4-0.3,0.6-0.6,0.6h-10.9c-0.4,0-0.6-0.3-0.6-0.6v-8.2c0-0.4,0.3-0.6,0.6-0.6h10.9
				c0.4,0,0.6,0.3,0.6,0.6V213.9z"/>
			<path class="st9" d="M498.3,213.9c0,0.4-0.3,0.6-0.6,0.6h-10.9c-0.4,0-0.6-0.3-0.6-0.6v-8.2c0-0.4,0.3-0.6,0.6-0.6h10.9
				c0.4,0,0.6,0.3,0.6,0.6V213.9z"/>
		</g>
		<rect x="488.2" y="207" class="st10" width="8" height="5.4"/>
		<line class="st11" x1="490" y1="207" x2="490" y2="212.5"/>
		<line class="st12" x1="473.9" y1="208.6" x2="477" y2="210.6"/>
		<line class="st12" x1="465.9" y1="208.3" x2="462.4" y2="210.5"/>
		<line class="st12" x1="462.4" y1="210.5" x2="465.9" y2="212.2"/>
		<rect x="849.7" y="210.4" class="st13" width="10.4" height="9.3"/>
		<line class="st14" x1="851.6" y1="215" x2="858.3" y2="215"/>
		<line class="st14" x1="855" y1="212" x2="855" y2="217.6"/>
		<g>
			<path class="st8" d="M845,214.3c0,0.4-0.3,0.6-0.6,0.6h-10.9c-0.4,0-0.6-0.3-0.6-0.6v-8.2c0-0.4,0.3-0.6,0.6-0.6h10.9
				c0.4,0,0.6,0.3,0.6,0.6V214.3z"/>
			<path class="st9" d="M845,214.3c0,0.4-0.3,0.6-0.6,0.6h-10.9c-0.4,0-0.6-0.3-0.6-0.6v-8.2c0-0.4,0.3-0.6,0.6-0.6h10.9
				c0.4,0,0.6,0.3,0.6,0.6V214.3z"/>
		</g>
		<g>
			<path class="st8" d="M829.9,214.3c0,0.4-0.3,0.6-0.6,0.6h-10.9c-0.4,0-0.6-0.3-0.6-0.6v-8.2c0-0.4,0.3-0.6,0.6-0.6h10.9
				c0.4,0,0.6,0.3,0.6,0.6V214.3z"/>
			<path class="st9" d="M829.9,214.3c0,0.4-0.3,0.6-0.6,0.6h-10.9c-0.4,0-0.6-0.3-0.6-0.6v-8.2c0-0.4,0.3-0.6,0.6-0.6h10.9
				c0.4,0,0.6,0.3,0.6,0.6V214.3z"/>
		</g>
		<rect x="838" y="207.7" class="st10" width="4.8" height="3.9"/>
		<rect x="835.6" y="209.7" class="st10" width="4.8" height="3.9"/>
		<rect x="821.2" y="209.4" class="st10" width="5" height="4.3"/>
		<line class="st9" x1="823.7" y1="209.4" x2="823.7" y2="207.1"/>
		<line class="st9" x1="823.7" y1="207.1" x2="824.4" y2="208.1"/>
		<line class="st9" x1="823.7" y1="207.1" x2="823" y2="208.1"/>
		<line class="st12" x1="477" y1="210.6" x2="473.9" y2="212.4"/>
		<path class="st25" d="M703.8,239.2"/>
		<line class="st15" x1="717.5" y1="208.4" x2="714.6" y2="212.2"/>
		<line class="st15" x1="714.6" y1="208.4" x2="717.5" y2="212.2"/>
	</g>
	<g id="Слой_4">
		<path class="st26" d="M813.2,243"/>
		<path class="st26" d="M813.2,234.6"/>
		<line class="st26" x1="765.5" y1="239.2" x2="765.5" y2="239.2"/>
	</g>
</g>
<g id="Notepad">
	<g id="_x31_">
		<path class="st17" d="M268.4,535.3c0,6.6-5.4,12-12,12H36.7c-6.6,0-12-5.4-12-12V231.5c0-6.6,5.4-12,12-12h219.7
			c6.6,0,12,5.4,12,12V535.3z"/>
		<rect x="47.7" y="238.8" class="st18" width="194.6" height="283.5"/>
		<circle class="st20" cx="146.6" cy="229.6" r="5.4"/>
		<circle class="st21" cx="146.6" cy="229.6" r="3.6"/>
		<path class="st27" d="M151.3,534.5c0-4.3-3.5-7.8-7.8-7.8l0,0c-4.3,0-7.8,3.5-7.8,7.8l0,0c0,4.3,3.5,7.8,7.8,7.8l0,0
			C147.8,542.3,151.3,538.8,151.3,534.5L151.3,534.5z"/>
		<rect x="140.6" y="531.8" class="st28" width="5.7" height="5.4"/>
	</g>
	<rect x="48.8" y="239.5" class="st1" width="192.5" height="18.1"/>
	<rect x="226.4" y="248" class="st29" width="3.9" height="3.7"/>
	<rect x="201.6" y="248" class="st30" width="5.5" height="3.9"/>
	<g>
		<path class="st2" d="M195.2,253.2c0,0.3-0.2,0.5-0.5,0.5H89.4c-0.3,0-0.5-0.2-0.5-0.5v-8.5c0-0.3,0.2-0.5,0.5-0.5h105.3
			c0.3,0,0.5,0.2,0.5,0.5V253.2z"/>
		<path class="st31" d="M195.2,253.2c0,0.3-0.2,0.5-0.5,0.5H89.4c-0.3,0-0.5-0.2-0.5-0.5v-8.5c0-0.3,0.2-0.5,0.5-0.5h105.3
			c0.3,0,0.5,0.2,0.5,0.5V253.2z"/>
	</g>
	<line class="st32" x1="75.8" y1="246.2" x2="77.6" y2="249.1"/>
	<line class="st32" x1="67.2" y1="246.1" x2="65.1" y2="249.2"/>
	<line class="st32" x1="65.1" y1="249.1" x2="67.2" y2="251.6"/>
	<line class="st33" x1="204.2" y1="248" x2="204.2" y2="245.4"/>
	<line class="st33" x1="204.2" y1="245.4" x2="204.7" y2="246.5"/>
	<line class="st33" x1="204.2" y1="245.4" x2="203.8" y2="246.5"/>
	<line class="st32" x1="77.6" y1="249.1" x2="75.8" y2="251.6"/>
	<line class="st34" x1="175.6" y1="247.6" x2="174.3" y2="251.4"/>
	<line class="st34" x1="174.3" y1="247.6" x2="175.6" y2="251.4"/>
	<rect x="227.9" y="246.1" class="st29" width="3.9" height="3.7"/>
	<line class="st35" x1="217.6" y1="246.2" x2="217.6" y2="251.3"/>
	<line class="st35" x1="214.6" y1="248.7" x2="220.5" y2="248.7"/>
	<line class="st15" x1="192.7" y1="247.2" x2="189.8" y2="251"/>
	<line class="st15" x1="189.8" y1="247.2" x2="192.7" y2="251"/>
	<rect x="58.5" y="264.4" class="st22" width="173.4" height="124.7"/>
	<rect x="58.5" y="396.8" class="st1" width="173.4" height="59.8"/>
	<rect x="57.8" y="463.3" class="st23" width="174.5" height="24.9"/>
	<rect x="57.8" y="493.4" class="st24" width="174.5" height="23.6"/>
</g>
<g id="Слой_8">
	<path class="st17" d="M1151.6,533.6c0,4.8-3,8.7-6.8,8.7h-124.2c-3.7,0-6.8-3.9-6.8-8.7V312.9c0-4.8,3-8.7,6.8-8.7h124.2
		c3.7,0,6.8,3.9,6.8,8.7V533.6z"/>
	<rect x="1020.2" y="328.9" class="st36" width="125.2" height="182.4"/>
	<circle class="st20" cx="1082.8" cy="316.6" r="5.4"/>
	<circle class="st21" cx="1082.8" cy="316.6" r="3.6"/>
	<path class="st27" d="M1090.6,527.7c0-4.3-3.5-7.8-7.8-7.8l0,0c-4.3,0-7.8,3.5-7.8,7.8l0,0c0,4.3,3.5,7.8,7.8,7.8l0,0
		C1087.1,535.5,1090.6,532,1090.6,527.7L1090.6,527.7z"/>
	<rect x="1079.9" y="525" class="st28" width="5.7" height="5.4"/>
	<rect x="1021.1" y="345.4" class="st37" width="122.8" height="164.8"/>
	<rect x="1021.1" y="330.6" class="st1" width="122.8" height="14.8"/>
	<g>
		<path class="st8" d="M1138.5,341.3c0,0.3-0.2,0.5-0.5,0.5h-111.7c-0.3,0-0.5-0.2-0.5-0.5v-7.5c0-0.3,0.2-0.5,0.5-0.5H1138
			c0.3,0,0.5,0.2,0.5,0.5V341.3z"/>
	</g>
	<line class="st15" x1="1135.1" y1="335.6" x2="1132.2" y2="339.5"/>
	<line class="st15" x1="1132.2" y1="335.6" x2="1135.1" y2="339.5"/>
	<line class="st38" x1="1038.6" y1="350.6" x2="1038.6" y2="356.9"/>
	<rect x="1025.8" y="350.6" class="st22" width="112.7" height="69.5"/>
	<rect x="1026.4" y="427.8" class="st1" width="112.7" height="36.2"/>
	<rect x="1026.7" y="468.8" class="st23" width="112.1" height="15.9"/>
	<rect x="1026.7" y="489.8" class="st24" width="112.1" height="16.5"/>
</g>
<g id="Слой_9">
	<line class="st39" x1="77.6" y1="212.9" x2="278.8" y2="548.2"/>
	<polyline class="st40" points="866.1,509.5 669.5,181.9 664.9,174.1 697.5,174 874,173.2 884.3,177.1 889.6,188.8 889.6,512.1 
		866.9,512.1 661.7,173.2 	"/>
	<line class="st39" x1="1021.1" y1="272.1" x2="1222.3" y2="607.5"/>
	<polygon class="st40" points="256.4,219.5 265.9,224.2 268.4,231.5 268.4,525 268.4,530.9 81.6,219.6 	"/>
	<polyline class="st40" points="1040.4,304.2 1144.9,304.2 1149.3,306.4 1151.6,312.9 1151.6,489.6 	"/>
</g>
<g id="Слой_10">
</g>
</svg>
