<?xml version="1.0" encoding="utf-8"?>
<!-- Generator: Adobe Illustrator 17.0.0, SVG Export Plug-In . SVG Version: 6.00 Build 0)  -->
<!DOCTYPE svg PUBLIC "-//W3C//DTD SVG 1.1//EN" "http://www.w3.org/Graphics/SVG/1.1/DTD/svg11.dtd">
<svg version="1.1" id="Слой_1" xmlns="http://www.w3.org/2000/svg" xmlns:xlink="http://www.w3.org/1999/xlink" x="0px" y="0px"
	 width="1000px" height="1000px" viewBox="0 0 1000 1000" style="enable-background:new 0 0 1000 1000;" xml:space="preserve">
<style type="text/css">
	.st0{display:none;fill:#B74F46;stroke:#3B4167;stroke-miterlimit:10;}
	.st1{fill:#B74F46;stroke:#3B4167;stroke-miterlimit:10;}
	.st2{opacity:0.2;fill:#0F1011;stroke:#3B4167;stroke-width:4.3087;stroke-miterlimit:10;enable-background:new    ;}
	.st3{fill:#E6F1E6;stroke:#334150;stroke-width:11.2547;stroke-miterlimit:10;}
	.st4{fill:#E6F1E6;}
	.st5{fill:none;stroke:#334150;stroke-width:13.3871;stroke-miterlimit:10;}
	.st6{fill:none;stroke:#334150;stroke-width:12.6891;stroke-miterlimit:10;}
	.st7{fill:none;stroke:#334150;stroke-width:8.7068;stroke-linecap:round;stroke-miterlimit:10;}
	.st8{fill:none;stroke:#AE5048;stroke-width:8.7068;stroke-miterlimit:10;}
	.st9{display:none;fill:none;stroke:#3B4167;stroke-width:2.612;stroke-miterlimit:10;}
	.st10{display:none;fill:none;stroke:#3B4167;stroke-width:4.3534;stroke-miterlimit:10;}
	.st11{fill:none;stroke:#3B4167;stroke-width:4.3534;stroke-miterlimit:10;}
</style>
<g id="Слой_1_1_">
	<path class="st0" d="M978.3,965.5c0,6.6-5.4,12-12,12H33.7c-6.6,0-12-5.4-12-12v-931c0-6.6,5.4-12,12-12h932.7c6.6,0,12,5.4,12,12
		v931H978.3z"/>
	<circle class="st1" cx="500" cy="500" r="486.6"/>
	<polyline class="st2" points="824.8,862.3 775.1,901.4 711.8,938.2 338.6,753.5 499.4,103.7 956.3,330.6 973,385.5 983,444.9 
		986.6,520.9 979.5,583.2 971.8,619.5 958.3,663.9 927.8,732.1 894.1,785.4 	"/>
	<path class="st3" d="M591,209c0-27.5-11-91.5-58.7-27.5c-4.1,5.5-2.9-38.4-4.2-45.2c-2.1-11.1-18.1-23.6-28-23.6
		c-10.3,0-29.3,18.3-29.3,27.3c0,7.2,3.5,47.6-1.9,41.2c-46.4-54.9-59.8,1.9-59.8,27.6c0,30.8,12.6,55.7,43.6,68
		c11.7,4.6,33.6-7.9,47.4-7.9c12,0,44.3,13.1,54.8,9.5C588.3,267.2,591,241.3,591,209z"/>
</g>
<g id="Слой_2">
	<g>
		<path class="st4" d="M777.6,540.2c17.7,67.7,1.2,129-48.6,173.4c-48.9,44.4-131.2,71.8-224.3,71.8s-175.4-27.4-224.3-71.8
			c-49.8-44.4-66.3-105.7-48.6-173.4c17.7-67.7,62.3-128.9,111.2-173.4c49.8-44.4,104-71.8,161.6-71.8s111.8,27.4,161.6,71.8
			C715.3,411.2,759.9,472.5,777.6,540.2z"/>
		<path class="st5" d="M777.6,540.2c17.7,67.7,1.2,129-48.6,173.4c-48.9,44.4-131.2,71.8-224.3,71.8s-175.4-27.4-224.3-71.8
			c-49.8-44.4-66.3-105.7-48.6-173.4c17.7-67.7,62.3-128.9,111.2-173.4c49.8-44.4,104-71.8,161.6-71.8s111.8,27.4,161.6,71.8
			C715.3,411.2,759.9,472.5,777.6,540.2z"/>
	</g>
	<g>
		<path class="st4" d="M558.5,427.8c0,0-2.3-9.8-5-21.6c-2.7-11.9-20.6-21.2-39.8-20.6l-17,0.4c-19.2,0.5-44.1,13.6-55.4,29.1
			l-1,1.3c-11.3,15.5-13.3,41.4-4.5,57.6c8.8,16.2,31.6,30.6,50.8,32l29.2,2.2c19.1,1.5,44.5,13.3,56.4,26.5
			c11.9,13.1,14.4,37.7,5.4,54.6l-2.8,5.2c-9,17-30.5,37.4-47.8,45.5l-9.7,4.5c-17.3,8.1-44.4,11.6-60.2,7.7
			c-15.8-3.9-28.9-18.7-29.3-32.8c-0.3-14.1-0.6-25.7-0.6-25.7"/>
		<path class="st6" d="M558.5,427.8c0,0-2.3-9.8-5-21.6c-2.7-11.9-20.6-21.2-39.8-20.6l-17,0.4c-19.2,0.5-44.1,13.6-55.4,29.1
			l-1,1.3c-11.3,15.5-13.3,41.4-4.5,57.6c8.8,16.2,31.6,30.6,50.8,32l29.2,2.2c19.1,1.5,44.5,13.3,56.4,26.5
			c11.9,13.1,14.4,37.7,5.4,54.6l-2.8,5.2c-9,17-30.5,37.4-47.8,45.5l-9.7,4.5c-17.3,8.1-44.4,11.6-60.2,7.7
			c-15.8-3.9-28.9-18.7-29.3-32.8c-0.3-14.1-0.6-25.7-0.6-25.7"/>
	</g>
	<line class="st7" x1="487.7" y1="361.5" x2="487.7" y2="700.1"/>
	<line class="st8" x1="506.7" y1="361.5" x2="506.7" y2="700.1"/>
	<g id="Слой_3">
		<line class="st9" x1="868.2" y1="777.5" x2="642.8" y2="622.6"/>
		<line class="st10" x1="930.2" y1="470.4" x2="458.4" y2="231.3"/>
		<line class="st10" x1="487.7" y1="175.5" x2="959.5" y2="414.5"/>
		<path class="st11" d="M1074.3,455.5"/>
		<polyline class="st10" points="1028.7,985 1095.7,894.6 1151.9,755.4 1133.1,562.6 1074.3,455.5 984,328.1 512.1,83.3 
			351.1,745.9 822.9,985 351.1,745.9 512.1,83.3 984,328.1 1074.3,455.5 984,328.1 512.1,83.3 984,328.1 512.1,89.1 		"/>
	</g>
</g>
</svg>
