<?xml version="1.0" encoding="utf-8"?>
<!-- Generator: Adobe Illustrator 17.0.0, SVG Export Plug-In . SVG Version: 6.00 Build 0)  -->
<!DOCTYPE svg PUBLIC "-//W3C//DTD SVG 1.1//EN" "http://www.w3.org/Graphics/SVG/1.1/DTD/svg11.dtd">
<svg version="1.1" xmlns="http://www.w3.org/2000/svg" xmlns:xlink="http://www.w3.org/1999/xlink" x="0px" y="0px" width="1000px"
	 height="1000px" viewBox="0 0 1000 1000" style="enable-background:new 0 0 1000 1000;" xml:space="preserve">
<style type="text/css">
	.st0{fill:#B74F46;stroke:#3B4167;stroke-miterlimit:10;}
	.st1{opacity:0.2;fill:#0F1011;stroke:#3B4167;stroke-width:5;stroke-miterlimit:10;}
	.st2{fill:#E6F1E6;stroke:#334150;stroke-width:14.5737;stroke-miterlimit:10;}
	.st3{fill:#E6F1E6;}
	.st4{fill:none;stroke:#334150;stroke-width:15.3754;stroke-miterlimit:10;}
	.st5{fill:none;stroke:#334150;stroke-width:14.5737;stroke-miterlimit:10;}
	.st6{fill:#D9E8C6;stroke:#334150;stroke-width:10;stroke-linecap:round;stroke-miterlimit:10;}
	.st7{fill:#B74F46;stroke:#AE5048;stroke-width:10;stroke-miterlimit:10;}
	.st8{display:none;fill:none;stroke:#3B4167;stroke-width:3;stroke-miterlimit:10;}
	.st9{display:none;fill:none;stroke:#3B4167;stroke-width:5;stroke-miterlimit:10;}
	.st10{fill:none;stroke:#3B4167;stroke-width:5;stroke-miterlimit:10;}
</style>
<g id="Слой_1">
	<path class="st0" d="M978.3,965.5c0,6.6-5.4,12-12,12H33.7c-6.6,0-12-5.4-12-12v-931c0-6.6,5.4-12,12-12h932.7c6.6,0,12,5.4,12,12
		V965.5z"/>
	<polyline class="st1" points="978.3,977.5 661,977.5 343.1,816.4 528.1,55.4 978.3,289 976.9,681.2 976.9,842.7 978.3,965.5 	"/>
	<path class="st2" d="M639.8,188.3c0-35.6-14.3-118.5-76-35.6c-5.3,7.1-3.8-49.7-5.5-58.5c-2.7-14.4-23.4-30.5-36.3-30.5
		c-13.3,0-37.9,23.7-37.9,35.4c0,9.3,4.5,61.7-2.5,53.4c-60.1-71.1-77.4,2.4-77.4,35.7c0,39.9,16.3,72.1,56.4,88
		c15.2,6,43.5-10.2,61.4-10.2c15.5,0,57.4,16.9,71,12.3C636.3,263.7,639.8,230.2,639.8,188.3z"/>
</g>
<g id="Слой_2">
	<g>
		<path class="st3" d="M833,580.1c20.3,77.8,1.4,148.2-55.8,199.1c-56.2,51-150.7,82.5-257.6,82.5c-106.9,0-201.4-31.5-257.6-82.5
			c-57.2-51-76.1-121.4-55.8-199.1C226.5,502.4,277.7,432,333.9,381c57.2-51,119.4-82.5,185.6-82.5c66.2,0,128.4,31.5,185.6,82.5
			C761.4,432,812.6,502.4,833,580.1z"/>
		<path class="st4" d="M833,580.1c20.3,77.8,1.4,148.2-55.8,199.1c-56.2,51-150.7,82.5-257.6,82.5c-106.9,0-201.4-31.5-257.6-82.5
			c-57.2-51-76.1-121.4-55.8-199.1C226.5,502.4,277.7,432,333.9,381c57.2-51,119.4-82.5,185.6-82.5c66.2,0,128.4,31.5,185.6,82.5
			C761.4,432,812.6,502.4,833,580.1z"/>
	</g>
	<g>
		<path class="st3" d="M581.3,451c0,0-2.6-11.2-5.7-24.8c-3.1-13.7-23.7-24.3-45.7-23.7l-19.5,0.5c-22,0.6-50.6,15.6-63.6,33.4
			l-1.1,1.5c-13,17.8-15.3,47.5-5.2,66.1c10.1,18.6,36.3,35.1,58.3,36.8l33.5,2.5c21.9,1.7,51.1,15.3,64.8,30.4
			c13.7,15.1,16.5,43.3,6.2,62.7l-3.2,6c-10.3,19.5-35,43-54.9,52.3l-11.1,5.2c-19.9,9.3-51,13.3-69.1,8.8
			c-18.1-4.5-33.2-21.5-33.6-37.7s-0.7-29.5-0.7-29.5"/>
		<path class="st5" d="M581.3,451c0,0-2.6-11.2-5.7-24.8c-3.1-13.7-23.7-24.3-45.7-23.7l-19.5,0.5c-22,0.6-50.6,15.6-63.6,33.4
			l-1.1,1.5c-13,17.8-15.3,47.5-5.2,66.1c10.1,18.6,36.3,35.1,58.3,36.8l33.5,2.5c21.9,1.7,51.1,15.3,64.8,30.4
			c13.7,15.1,16.5,43.3,6.2,62.7l-3.2,6c-10.3,19.5-35,43-54.9,52.3l-11.1,5.2c-19.9,9.3-51,13.3-69.1,8.8
			c-18.1-4.5-33.2-21.5-33.6-37.7s-0.7-29.5-0.7-29.5"/>
	</g>
	<line class="st6" x1="500" y1="374.9" x2="500" y2="763.8"/>
	<line class="st7" x1="521.9" y1="374.9" x2="521.9" y2="763.8"/>
	<g id="Слой_3">
		<line class="st8" x1="937" y1="852.7" x2="678.2" y2="674.8"/>
		<line class="st9" x1="1008.2" y1="500" x2="466.4" y2="225.4"/>
		<line class="st9" x1="500" y1="161.3" x2="1041.9" y2="435.8"/>
		<path class="st10" d="M1173.7,482.9"/>
		<polyline class="st9" points="1121.4,1091 1198.3,987.2 1262.9,827.3 1241.3,605.9 1173.7,482.9 1070,336.5 528.1,55.4 
			343.1,816.4 885,1091 343.1,816.4 528.1,55.4 1070,336.5 1173.7,482.9 1070,336.5 528.1,55.4 1070,336.5 528.1,62 		"/>
	</g>
</g>
</svg>
