<?xml version="1.0" encoding="utf-8"?>
<!-- Generator: Adobe Illustrator 17.0.0, SVG Export Plug-In . SVG Version: 6.00 Build 0)  -->
<!DOCTYPE svg PUBLIC "-//W3C//DTD SVG 1.1//EN" "http://www.w3.org/Graphics/SVG/1.1/DTD/svg11.dtd">
<svg version="1.1" xmlns="http://www.w3.org/2000/svg" xmlns:xlink="http://www.w3.org/1999/xlink" x="0px" y="0px" width="1000px"
	 height="1000px" viewBox="0 0 1000 1000" enable-background="new 0 0 1000 1000" xml:space="preserve">
<pattern  width="444.7" height="18.5" patternUnits="userSpaceOnUse" id="Unnamed_Pattern" viewBox="0 -18.5 444.7 18.5" overflow="visible">
	<g>
		<polygon fill="none" points="0,0 444.7,0 444.7,-18.5 0,-18.5 		"/>
		<g>
			<polygon fill="none" points="0,-18.5 444.7,-18.5 444.7,0 0,0 			"/>
			<polygon fill="#B3B8B5" points="444.6,-18.5 0,-18.5 0,-1.3 0,0 1.3,0 444.6,0 			"/>
			<g>
				<path fill="#FFFFFF" d="M302.6-12.9c0-0.3-0.3-0.6-0.6-0.6H139.2c-0.3,0-0.6,0.3-0.6,0.6v8.3c0,0.3,0.3,0.6,0.6,0.6H302
					c0.3,0,0.6-0.3,0.6-0.6V-12.9z"/>
				
					<path fill="none" stroke="#7F7E7C" stroke-width="0.2959" stroke-linecap="round" stroke-linejoin="round" stroke-miterlimit="10" d="
					M302.6-12.9c0-0.3-0.3-0.6-0.6-0.6H139.2c-0.3,0-0.6,0.3-0.6,0.6v8.3c0,0.3,0.3,0.6,0.6,0.6H302c0.3,0,0.6-0.3,0.6-0.6V-12.9z"
					/>
			</g>
			<g>
				<path fill="#9C4C47" d="M13.9-11.4c-1.4,0-2.6,1.2-2.6,2.6s1.2,2.6,2.6,2.6s2.6-1.2,2.6-2.6S15.3-11.4,13.9-11.4z"/>
				<path fill="#7F7E7C" d="M13.9-6.3c-1.4,0-2.5-1.1-2.5-2.5s1.1-2.5,2.5-2.5s2.5,1.1,2.5,2.5S15.2-6.3,13.9-6.3 M13.9-6
					c1.5,0,2.7-1.2,2.7-2.7s-1.2-2.8-2.7-2.8s-2.7,1.2-2.7,2.7S12.3-6,13.9-6L13.9-6z"/>
			</g>
			<g>
				<path fill="#E2A75B" d="M22.2-11.4c-1.4,0-2.6,1.2-2.6,2.6s1.2,2.6,2.6,2.6s2.6-1.2,2.6-2.6S23.7-11.4,22.2-11.4z"/>
				<path fill="#7F7E7C" d="M22.2-6.3c-1.4,0-2.5-1.1-2.5-2.5s1.1-2.5,2.5-2.5s2.5,1.1,2.5,2.5S23.6-6.3,22.2-6.3 M22.2-6
					c1.5,0,2.7-1.2,2.7-2.7s-1.2-2.8-2.7-2.8s-2.7,1.2-2.7,2.7S20.7-6,22.2-6L22.2-6z"/>
			</g>
			<g>
				<path fill="#74AF60" d="M30-11.4c-1.4,0-2.6,1.2-2.6,2.6s1.2,2.6,2.6,2.6s2.6-1.2,2.6-2.6S31.5-11.4,30-11.4z"/>
				<path fill="#7F7E7C" d="M30-6.3c-1.4,0-2.5-1.1-2.5-2.5s1.1-2.5,2.5-2.5s2.5,1.1,2.5,2.5S31.4-6.3,30-6.3 M30-6
					c1.5,0,2.7-1.2,2.7-2.7s-1.2-2.8-2.7-2.8s-2.7,1.2-2.7,2.7S28.5-6,30-6L30-6z"/>
			</g>
			<g>
				<path fill="#EEEEEE" d="M51.4-12.9c0-0.3-0.3-0.6-0.6-0.6h-9.1c-0.3,0-0.6,0.3-0.6,0.6v8.3c0,0.3,0.3,0.6,0.6,0.6h9.1
					c0.3,0,0.6-0.3,0.6-0.6V-12.9z"/>
				<path fill="none" stroke="#7F7E7C" stroke-width="0.25" stroke-miterlimit="10" d="M51.4-12.9c0-0.3-0.3-0.6-0.6-0.6h-9.1
					c-0.3,0-0.6,0.3-0.6,0.6v8.3c0,0.3,0.3,0.6,0.6,0.6h9.1c0.3,0,0.6-0.3,0.6-0.6V-12.9z"/>
			</g>
			<g>
				<path fill="#EEEEEE" d="M62.1-12.9c0-0.3-0.3-0.6-0.6-0.6h-9.1c-0.3,0-0.6,0.3-0.6,0.6v8.3c0,0.3,0.3,0.6,0.6,0.6h9.1
					c0.3,0,0.6-0.3,0.6-0.6V-12.9z"/>
				<path fill="none" stroke="#7F7E7C" stroke-width="0.25" stroke-miterlimit="10" d="M62.1-12.9c0-0.3-0.3-0.6-0.6-0.6h-9.1
					c-0.3,0-0.6,0.3-0.6,0.6v8.3c0,0.3,0.3,0.6,0.6,0.6h9.1c0.3,0,0.6-0.3,0.6-0.6V-12.9z"/>
			</g>
			<g>
				<path fill="#EEEEEE" d="M79.6-12.9c0-0.4-0.3-0.6-0.6-0.6H68.1c-0.4,0-0.6,0.3-0.6,0.6v8.2c0,0.4,0.3,0.6,0.6,0.6H79
					c0.4,0,0.6-0.3,0.6-0.6V-12.9z"/>
				<path fill="none" stroke="#7F7E7C" stroke-width="0.25" stroke-miterlimit="10" d="M79.6-12.9c0-0.4-0.3-0.6-0.6-0.6H68.1
					c-0.4,0-0.6,0.3-0.6,0.6v8.2c0,0.4,0.3,0.6,0.6,0.6H79c0.4,0,0.6-0.3,0.6-0.6V-12.9z"/>
			</g>
			<polygon fill="#EEEEEE" stroke="#7F7E7C" stroke-width="0.25" stroke-miterlimit="10" points="77.4,-11.5 69.4,-11.5 69.4,-6 
				77.4,-6 			"/>
			
				<line fill="none" stroke="#7F7E7C" stroke-width="0.25" stroke-linecap="round" stroke-linejoin="round" stroke-miterlimit="10" x1="71.2" y1="-6" x2="71.2" y2="-11.5"/>
			
				<line fill="none" stroke="#979695" stroke-width="0.25" stroke-linecap="round" stroke-linejoin="round" stroke-miterlimit="10" x1="55.1" y1="-7.6" x2="58.2" y2="-9.6"/>
			
				<line fill="none" stroke="#979695" stroke-width="0.25" stroke-linecap="round" stroke-linejoin="round" stroke-miterlimit="10" x1="47.1" y1="-7.3" x2="43.6" y2="-9.5"/>
			
				<line fill="none" stroke="#979695" stroke-width="0.25" stroke-linecap="round" stroke-linejoin="round" stroke-miterlimit="10" x1="43.6" y1="-9.5" x2="47.1" y2="-11.2"/>
			<polygon fill="#9A9B9B" stroke="#7F7E7C" stroke-width="0.25" stroke-miterlimit="10" points="444.6,-18.1 434.1,-18.1 
				434.1,-8.9 444.6,-8.9 			"/>
			<line fill="none" stroke="#585550" stroke-width="0.5" stroke-miterlimit="10" x1="436.1" y1="-13.5" x2="442.7" y2="-13.5"/>
			<line fill="none" stroke="#585550" stroke-width="0.5" stroke-miterlimit="10" x1="439.4" y1="-10.5" x2="439.4" y2="-16.1"/>
			<g>
				<path fill="#EEEEEE" d="M426.3-13.3c0-0.4-0.3-0.6-0.6-0.6h-10.9c-0.4,0-0.6,0.3-0.6,0.6v8.2c0,0.4,0.3,0.6,0.6,0.6h10.9
					c0.4,0,0.6-0.3,0.6-0.6V-13.3z"/>
				<path fill="none" stroke="#7F7E7C" stroke-width="0.25" stroke-miterlimit="10" d="M426.3-13.3c0-0.4-0.3-0.6-0.6-0.6h-10.9
					c-0.4,0-0.6,0.3-0.6,0.6v8.2c0,0.4,0.3,0.6,0.6,0.6h10.9c0.4,0,0.6-0.3,0.6-0.6V-13.3z"/>
			</g>
			<polygon fill="#EEEEEE" stroke="#7F7E7C" stroke-width="0.25" stroke-miterlimit="10" points="423.9,-10.6 419.2,-10.6 
				419.2,-6.7 423.9,-6.7 			"/>
			<polygon fill="#EEEEEE" stroke="#7F7E7C" stroke-width="0.25" stroke-miterlimit="10" points="421.6,-12.6 416.8,-12.6 
				416.8,-8.7 421.6,-8.7 			"/>
			<polygon fill="#EEEEEE" stroke="#7F7E7C" stroke-width="0.25" stroke-miterlimit="10" points="407.4,-12.6 402.4,-12.6 
				402.4,-8.4 407.4,-8.4 			"/>
			<line fill="none" stroke="#7F7E7C" stroke-width="0.25" stroke-miterlimit="10" x1="404.9" y1="-8.4" x2="404.9" y2="-6.1"/>
			<line fill="none" stroke="#7F7E7C" stroke-width="0.25" stroke-miterlimit="10" x1="404.9" y1="-6.1" x2="405.7" y2="-7.1"/>
			<line fill="none" stroke="#7F7E7C" stroke-width="0.25" stroke-miterlimit="10" x1="404.9" y1="-6.1" x2="404.3" y2="-7.1"/>
			
				<line fill="none" stroke="#979695" stroke-width="0.25" stroke-linecap="round" stroke-linejoin="round" stroke-miterlimit="10" x1="58.2" y1="-9.6" x2="55.1" y2="-11.4"/>
			<line fill="none" stroke="#6A6865" stroke-width="0.25" stroke-miterlimit="10" x1="298.7" y1="-7.4" x2="295.8" y2="-11.2"/>
			<line fill="none" stroke="#6A6865" stroke-width="0.25" stroke-miterlimit="10" x1="295.8" y1="-7.4" x2="298.7" y2="-11.2"/>
		</g>
	</g>
</pattern>
<g id="Слой_1">
	<g id="Слой_4">
		<g id="Слой_1_2_">
			<path display="none" fill="#B74F46" stroke="#F5F7F7" stroke-miterlimit="10" d="M978.3,965.5c0,6.6-5.4,12-12,12H33.7
				c-6.6,0-12-5.4-12-12v-931c0-6.6,5.4-12,12-12h932.7c6.6,0,12,5.4,12,12v931H978.3z"/>
			<circle fill="#B74F46" stroke="#F5F7F7" stroke-miterlimit="10" cx="500" cy="500" r="486.6"/>
		</g>
	</g>
	
		<line display="none" fill="none" stroke="#444A65" stroke-width="5" stroke-miterlimit="10" x1="632.455" y1="113.937" x2="1174.355" y2="388.437"/>
	
		<line display="none" fill="none" stroke="#444A65" stroke-width="5" stroke-miterlimit="10" x1="84.441" y1="726.243" x2="626.341" y2="1000.743"/>
	<polygon opacity="0.2" fill="#101111" points="234.974,797.034 579.475,980.139 652.683,962.09 717.333,935.244 767.191,904.015 
		807.734,876.073 836.772,850.87 869.097,818.545 905.257,770.332 935.938,714.448 963.332,651.989 975.423,604.176 
		984.152,546.248 986.6,495.843 984.152,442.151 974.29,392.841 963.332,350.107 951.827,316.686 928.677,269.561 772.909,184.427 	
		"/>
</g>
<g id="Слой_2">
	<g id="Notepad">
		<g id="_x31_">
			<path fill="#353736" d="M788.369,743.776c0,11.707-9.579,21.286-21.286,21.286H377.375c-11.707,0-21.286-9.579-21.286-21.286
				V204.89c0-11.707,9.579-21.286,21.286-21.286h389.707c11.707,0,21.286,9.579,21.286,21.286V743.776z"/>
			
				<rect x="396.887" y="217.839" fill="#F2F4F4" stroke="#242321" stroke-width="2" stroke-miterlimit="10" width="345.185" height="502.877"/>
			<circle fill="#464747" stroke="#242321" stroke-miterlimit="10" cx="572.318" cy="201.52" r="9.579"/>
			<circle fill="#0D0F0F" stroke="#242321" stroke-width="0.6708" stroke-miterlimit="10" cx="572.318" cy="201.52" r="6.386"/>
			<path fill="#363736" stroke="#242321" stroke-width="1.6901" stroke-miterlimit="10" d="M580.655,742.357
				c0-7.627-6.208-13.836-13.836-13.836l0,0c-7.627,0-13.836,6.208-13.836,13.836l0,0c0,7.627,6.208,13.836,13.836,13.836l0,0
				C574.446,756.192,580.655,749.984,580.655,742.357L580.655,742.357z"/>
			
				<rect x="561.675" y="737.567" fill="#363736" stroke="#7F7E7C" stroke-width="0.4277" stroke-miterlimit="10" width="10.111" height="9.579"/>
		</g>
		<rect x="398.839" y="219.081" fill="#B3B8B5" width="341.46" height="32.106"/>
		
			<rect x="713.868" y="234.158" fill="#AFAFAF" stroke="#6A6865" stroke-width="0.2613" stroke-miterlimit="10" width="6.918" height="6.563"/>
		
			<rect x="669.878" y="234.158" fill="#AFAFAF" stroke="#6A6865" stroke-width="0.3173" stroke-miterlimit="10" width="9.756" height="6.918"/>
		<g>
			<path fill="#FFFFFF" d="M658.525,243.382c0,0.532-0.355,0.887-0.887,0.887H470.855c-0.532,0-0.887-0.355-0.887-0.887v-15.077
				c0-0.532,0.355-0.887,0.887-0.887h186.783c0.532,0,0.887,0.355,0.887,0.887L658.525,243.382L658.525,243.382z"/>
			<pattern  id="SVGID_1_" xlink:href="#Unnamed_Pattern" patternTransform="matrix(1 0 0 -1 -89.65 -12523.4004)">
			</pattern>
			
				<path fill="none" stroke="url(#SVGID_1_)" stroke-width="0.2382" stroke-linecap="round" stroke-linejoin="round" stroke-miterlimit="10" d="
				M658.525,243.382c0,0.532-0.355,0.887-0.887,0.887H470.855c-0.532,0-0.887-0.355-0.887-0.887v-15.077
				c0-0.532,0.355-0.887,0.887-0.887h186.783c0.532,0,0.887,0.355,0.887,0.887L658.525,243.382L658.525,243.382z"/>
		</g>
		
			<line fill="none" stroke="#7F7E7C" stroke-width="0.2288" stroke-linecap="round" stroke-linejoin="round" stroke-miterlimit="10" x1="446.732" y1="230.965" x2="449.924" y2="236.109"/>
		
			<line fill="none" stroke="#7F7E7C" stroke-width="0.2288" stroke-linecap="round" stroke-linejoin="round" stroke-miterlimit="10" x1="431.477" y1="230.788" x2="427.752" y2="236.287"/>
		
			<line fill="none" stroke="#7F7E7C" stroke-width="0.2288" stroke-linecap="round" stroke-linejoin="round" stroke-miterlimit="10" x1="427.752" y1="236.109" x2="431.477" y2="240.544"/>
		
			<line fill="none" stroke="#585550" stroke-width="0.2179" stroke-miterlimit="10" x1="674.49" y1="234.158" x2="674.49" y2="229.546"/>
		
			<line fill="none" stroke="#585550" stroke-width="0.2179" stroke-miterlimit="10" x1="674.49" y1="229.546" x2="675.376" y2="231.497"/>
		
			<line fill="none" stroke="#585550" stroke-width="0.2179" stroke-miterlimit="10" x1="674.49" y1="229.546" x2="673.78" y2="231.497"/>
		
			<line fill="none" stroke="#7F7E7C" stroke-width="0.2288" stroke-linecap="round" stroke-linejoin="round" stroke-miterlimit="10" x1="449.924" y1="236.109" x2="446.732" y2="240.544"/>
		<pattern  id="SVGID_2_" xlink:href="#Unnamed_Pattern" patternTransform="matrix(1 0 0 -1 -89.65 -12523.4004)">
		</pattern>
		
			<line fill="none" stroke="url(#SVGID_2_)" stroke-width="0.1623" stroke-miterlimit="10" x1="623.758" y1="233.449" x2="621.452" y2="240.189"/>
		<pattern  id="SVGID_3_" xlink:href="#Unnamed_Pattern" patternTransform="matrix(1 0 0 -1 -89.65 -12523.4004)">
		</pattern>
		
			<line fill="none" stroke="url(#SVGID_3_)" stroke-width="0.1623" stroke-miterlimit="10" x1="621.452" y1="233.449" x2="623.758" y2="240.189"/>
		
			<rect x="716.529" y="230.788" fill="#AFAFAF" stroke="#6A6865" stroke-width="0.2613" stroke-miterlimit="10" width="6.918" height="6.563"/>
		
			<line fill="none" stroke="#6A6865" stroke-width="0.2502" stroke-miterlimit="10" x1="698.259" y1="230.965" x2="698.259" y2="240.012"/>
		
			<line fill="none" stroke="#6A6865" stroke-width="0.2502" stroke-miterlimit="10" x1="692.937" y1="235.4" x2="703.403" y2="235.4"/>
		
			<line fill="none" stroke="#6A6865" stroke-width="0.25" stroke-miterlimit="10" x1="654.091" y1="232.739" x2="648.947" y2="239.48"/>
		
			<line fill="none" stroke="#6A6865" stroke-width="0.25" stroke-miterlimit="10" x1="648.947" y1="232.739" x2="654.091" y2="239.48"/>
		<rect x="416.045" y="263.249" fill="#4E7BA3" width="307.58" height="221.195"/>
		<rect x="416.045" y="498.102" fill="#B3B8B5" width="307.58" height="106.074"/>
		<rect x="414.803" y="616.061" fill="#56A189" width="309.531" height="44.168"/>
		<rect x="414.803" y="669.453" fill="#C15D55" width="309.531" height="41.862"/>
	</g>
</g>
<g id="Слой_4_1_" display="none">
	<g id="Laptop" display="inline">
		<g id="Слой_2_1_">
			<path fill="#353736" d="M822.179,665.663c0,10.555-8.591,19.146-19.146,19.146H228.655c-10.555,0-19.146-8.591-19.146-19.146
				V268.876c0-10.555,8.591-19.146,19.146-19.146h574.378c10.555,0,19.146,8.591,19.146,19.146V665.663z"/>
			
				<rect x="244.365" y="283.849" fill="#F2F4F4" stroke="#242321" stroke-width="2" stroke-miterlimit="10" width="545.659" height="368.191"/>
			<polygon fill="#353736" points="922.695,698.555 905.881,708.864 119.425,708.864 104.698,696.714 92.547,688.491 
				92.547,667.995 939.141,667.995 939.141,688.491 			"/>
			<polygon fill="#464747" points="939.141,688.491 92.547,688.491 92.547,667.995 458.775,667.995 470.802,672.904 
				515.844,672.904 558.432,672.904 569.968,667.995 939.141,667.995 			"/>
			<circle fill="#464747" stroke="#242321" stroke-miterlimit="10" cx="514.985" cy="264.825" r="6.627"/>
			<circle fill="#0D0F0F" stroke="#242321" stroke-width="0.6708" stroke-miterlimit="10" cx="514.985" cy="264.825" r="4.418"/>
			<polygon fill="#B3B8B5" points="788.797,306.554 245.715,306.554 245.715,286.549 245.715,285.076 247.31,285.076 
				788.797,285.076 			"/>
			<rect x="282.779" y="320.913" fill="#4E7BA3" width="464.412" height="207.169"/>
			<rect x="282.779" y="546.492" fill="#B3B8B5" width="296.762" height="89.839"/>
			<rect x="589.728" y="546.492" fill="#56A189" width="154.518" height="40.256"/>
			<rect x="589.728" y="595.706" fill="#C15D55" width="154.518" height="40.624"/>
		</g>
		<g id="Слой_3_1_">
			<g>
				<path fill="#FFFFFF" d="M615.624,299.681c0,0.368-0.368,0.736-0.736,0.736H415.083c-0.368,0-0.736-0.368-0.736-0.736v-10.187
					c0-0.368,0.368-0.736,0.736-0.736h199.805c0.368,0,0.736,0.368,0.736,0.736V299.681z"/>
				
					<path fill="none" stroke="#7F7E7C" stroke-width="0.2959" stroke-linecap="round" stroke-linejoin="round" stroke-miterlimit="10" d="
					M615.624,299.681c0,0.368-0.368,0.736-0.736,0.736H415.083c-0.368,0-0.736-0.368-0.736-0.736v-10.187
					c0-0.368,0.368-0.736,0.736-0.736h199.805c0.368,0,0.736,0.368,0.736,0.736V299.681z"/>
			</g>
			<g>
				<circle fill="#9C4C47" cx="261.302" cy="294.649" r="3.191"/>
				<path fill="#7F7E7C" d="M261.302,291.581c1.718,0,3.068,1.35,3.068,3.068c0,1.718-1.35,3.068-3.068,3.068
					s-3.068-1.35-3.068-3.068C258.233,292.931,259.583,291.581,261.302,291.581 M261.302,291.212c-1.841,0-3.314,1.473-3.314,3.314
					c0,1.841,1.473,3.314,3.314,3.314s3.314-1.473,3.314-3.314C264.615,292.685,263.143,291.212,261.302,291.212L261.302,291.212z"
					/>
			</g>
			<g>
				<circle fill="#E2A75B" cx="271.611" cy="294.649" r="3.191"/>
				<path fill="#7F7E7C" d="M271.611,291.581c1.718,0,3.068,1.35,3.068,3.068c0,1.718-1.35,3.068-3.068,3.068
					c-1.718,0-3.068-1.35-3.068-3.068C268.543,292.931,269.893,291.581,271.611,291.581 M271.611,291.212
					c-1.841,0-3.314,1.473-3.314,3.314c0,1.841,1.473,3.314,3.314,3.314c1.841,0,3.314-1.473,3.314-3.314
					C274.925,292.685,273.452,291.212,271.611,291.212L271.611,291.212z"/>
			</g>
			<g>
				<circle fill="#74AF60" cx="281.184" cy="294.649" r="3.191"/>
				<path fill="#7F7E7C" d="M281.184,291.581c1.718,0,3.068,1.35,3.068,3.068c0,1.718-1.35,3.068-3.068,3.068
					s-3.068-1.35-3.068-3.068C278.116,292.931,279.466,291.581,281.184,291.581 M281.184,291.212c-1.841,0-3.314,1.473-3.314,3.314
					c0,1.841,1.473,3.314,3.314,3.314s3.314-1.473,3.314-3.314C284.498,292.685,283.025,291.212,281.184,291.212L281.184,291.212z"
					/>
			</g>
			<g>
				<path fill="#EEEEEE" d="M307.448,299.681c0,0.368-0.368,0.736-0.736,0.736h-11.168c-0.368,0-0.736-0.368-0.736-0.736v-10.187
					c0-0.368,0.368-0.736,0.736-0.736h11.168c0.368,0,0.736,0.368,0.736,0.736V299.681z"/>
				<path fill="none" stroke="#7F7E7C" stroke-width="0.25" stroke-miterlimit="10" d="M307.448,299.681
					c0,0.368-0.368,0.736-0.736,0.736h-11.168c-0.368,0-0.736-0.368-0.736-0.736v-10.187c0-0.368,0.368-0.736,0.736-0.736h11.168
					c0.368,0,0.736,0.368,0.736,0.736V299.681z"/>
			</g>
			<g>
				<path fill="#EEEEEE" d="M320.458,299.681c0,0.368-0.368,0.736-0.736,0.736h-11.168c-0.368,0-0.736-0.368-0.736-0.736v-10.187
					c0-0.368,0.368-0.736,0.736-0.736h11.168c0.368,0,0.736,0.368,0.736,0.736V299.681z"/>
				<path fill="none" stroke="#7F7E7C" stroke-width="0.25" stroke-miterlimit="10" d="M320.458,299.681
					c0,0.368-0.368,0.736-0.736,0.736h-11.168c-0.368,0-0.736-0.368-0.736-0.736v-10.187c0-0.368,0.368-0.736,0.736-0.736h11.168
					c0.368,0,0.736,0.368,0.736,0.736V299.681z"/>
			</g>
			<g>
				<path fill="#EEEEEE" d="M341.935,299.681c0,0.491-0.368,0.736-0.736,0.736h-13.378c-0.491,0-0.736-0.368-0.736-0.736v-10.064
					c0-0.491,0.368-0.736,0.736-0.736h13.378c0.491,0,0.736,0.368,0.736,0.736V299.681z"/>
				<path fill="none" stroke="#7F7E7C" stroke-width="0.25" stroke-miterlimit="10" d="M341.935,299.681
					c0,0.491-0.368,0.736-0.736,0.736h-13.378c-0.491,0-0.736-0.368-0.736-0.736v-10.064c0-0.491,0.368-0.736,0.736-0.736h13.378
					c0.491,0,0.736,0.368,0.736,0.736V299.681z"/>
			</g>
			
				<rect x="329.54" y="291.212" fill="#EEEEEE" stroke="#7F7E7C" stroke-width="0.25" stroke-miterlimit="10" width="9.818" height="6.627"/>
			
				<line fill="none" stroke="#7F7E7C" stroke-width="0.25" stroke-linecap="round" stroke-linejoin="round" stroke-miterlimit="10" x1="331.749" y1="291.212" x2="331.749" y2="297.963"/>
			
				<line fill="none" stroke="#979695" stroke-width="0.25" stroke-linecap="round" stroke-linejoin="round" stroke-miterlimit="10" x1="311.989" y1="293.176" x2="315.794" y2="295.631"/>
			
				<line fill="none" stroke="#979695" stroke-width="0.25" stroke-linecap="round" stroke-linejoin="round" stroke-miterlimit="10" x1="302.171" y1="292.808" x2="297.875" y2="295.508"/>
			
				<line fill="none" stroke="#979695" stroke-width="0.25" stroke-linecap="round" stroke-linejoin="round" stroke-miterlimit="10" x1="297.875" y1="295.508" x2="302.171" y2="297.594"/>
			
				<rect x="773.21" y="295.385" fill="#9A9B9B" stroke="#7F7E7C" stroke-width="0.25" stroke-miterlimit="10" width="12.764" height="11.414"/>
			
				<line fill="none" stroke="#585550" stroke-width="0.5" stroke-miterlimit="10" x1="775.542" y1="301.031" x2="783.765" y2="301.031"/>
			
				<line fill="none" stroke="#585550" stroke-width="0.5" stroke-miterlimit="10" x1="779.715" y1="297.349" x2="779.715" y2="304.222"/>
			<g>
				<path fill="#EEEEEE" d="M767.442,300.172c0,0.491-0.368,0.736-0.736,0.736h-13.378c-0.491,0-0.736-0.368-0.736-0.736v-10.064
					c0-0.491,0.368-0.736,0.736-0.736h13.378c0.491,0,0.736,0.368,0.736,0.736V300.172z"/>
				<path fill="none" stroke="#7F7E7C" stroke-width="0.25" stroke-miterlimit="10" d="M767.442,300.172
					c0,0.491-0.368,0.736-0.736,0.736h-13.378c-0.491,0-0.736-0.368-0.736-0.736v-10.064c0-0.491,0.368-0.736,0.736-0.736h13.378
					c0.491,0,0.736,0.368,0.736,0.736V300.172z"/>
			</g>
			<g>
				<path fill="#EEEEEE" d="M748.909,300.172c0,0.491-0.368,0.736-0.736,0.736h-13.378c-0.491,0-0.736-0.368-0.736-0.736v-10.064
					c0-0.491,0.368-0.736,0.736-0.736h13.378c0.491,0,0.736,0.368,0.736,0.736V300.172z"/>
				<path fill="none" stroke="#7F7E7C" stroke-width="0.25" stroke-miterlimit="10" d="M748.909,300.172
					c0,0.491-0.368,0.736-0.736,0.736h-13.378c-0.491,0-0.736-0.368-0.736-0.736v-10.064c0-0.491,0.368-0.736,0.736-0.736h13.378
					c0.491,0,0.736,0.368,0.736,0.736V300.172z"/>
			</g>
			
				<rect x="758.851" y="292.072" fill="#EEEEEE" stroke="#7F7E7C" stroke-width="0.25" stroke-miterlimit="10" width="5.891" height="4.786"/>
			
				<rect x="755.905" y="294.526" fill="#EEEEEE" stroke="#7F7E7C" stroke-width="0.25" stroke-miterlimit="10" width="5.891" height="4.786"/>
			
				<rect x="738.232" y="294.158" fill="#EEEEEE" stroke="#7F7E7C" stroke-width="0.25" stroke-miterlimit="10" width="6.137" height="5.277"/>
			
				<line fill="none" stroke="#7F7E7C" stroke-width="0.25" stroke-miterlimit="10" x1="741.3" y1="294.158" x2="741.3" y2="291.335"/>
			
				<line fill="none" stroke="#7F7E7C" stroke-width="0.25" stroke-miterlimit="10" x1="741.3" y1="291.335" x2="742.159" y2="292.563"/>
			
				<line fill="none" stroke="#7F7E7C" stroke-width="0.25" stroke-miterlimit="10" x1="741.3" y1="291.335" x2="740.441" y2="292.563"/>
			
				<line fill="none" stroke="#979695" stroke-width="0.25" stroke-linecap="round" stroke-linejoin="round" stroke-miterlimit="10" x1="315.794" y1="295.631" x2="311.989" y2="297.84"/>
			<path fill="none" stroke="#6A6865" stroke-miterlimit="10" d="M594.146,330.732"/>
			
				<line fill="none" stroke="#6A6865" stroke-width="0.25" stroke-miterlimit="10" x1="610.96" y1="292.931" x2="607.401" y2="297.594"/>
			
				<line fill="none" stroke="#6A6865" stroke-width="0.25" stroke-miterlimit="10" x1="607.401" y1="292.931" x2="610.96" y2="297.594"/>
		</g>
		<g id="Слой_4_2_">
			<path fill="none" stroke="#979695" stroke-width="0.5" stroke-miterlimit="10" d="M728.413,335.395"/>
			<path fill="none" stroke="#979695" stroke-width="0.5" stroke-miterlimit="10" d="M728.413,325.086"/>
			
				<line fill="none" stroke="#979695" stroke-width="0.5" stroke-miterlimit="10" x1="669.871" y1="330.732" x2="669.871" y2="330.732"/>
		</g>
	</g>
</g>
<g id="Слой_3">
	<g id="Слой_8_1_">
		<path fill="#353736" d="M429.614,788.877c0,6.864-4.29,12.441-9.724,12.441H242.285c-5.291,0-9.724-5.577-9.724-12.441v-315.6
			c0-6.864,4.29-12.441,9.724-12.441H419.89c5.291,0,9.724,5.577,9.724,12.441V788.877z"/>
		
			<rect x="241.713" y="496.157" fill="#464747" stroke="#242321" stroke-width="1.9452" stroke-miterlimit="10" width="179.035" height="260.831"/>
		<circle fill="#464747" stroke="#242321" stroke-miterlimit="10" cx="331.231" cy="478.568" r="7.722"/>
		<circle fill="#0D0F0F" stroke="#242321" stroke-width="0.6708" stroke-miterlimit="10" cx="331.231" cy="478.568" r="5.148"/>
		<path fill="#363736" stroke="#242321" stroke-width="1.6901" stroke-miterlimit="10" d="M342.385,780.44
			c0-6.149-5.005-11.154-11.154-11.154l0,0c-6.149,0-11.154,5.005-11.154,11.154l0,0c0,6.149,5.005,11.154,11.154,11.154l0,0
			C337.38,791.594,342.385,786.589,342.385,780.44L342.385,780.44z"/>
		
			<rect x="327.084" y="776.579" fill="#363736" stroke="#7F7E7C" stroke-width="0.4277" stroke-miterlimit="10" width="8.151" height="7.722"/>
		<rect x="243" y="519.752" fill="#EDEFF0" width="175.603" height="235.663"/>
		<rect x="243" y="498.588" fill="#B3B8B5" width="175.603" height="21.164"/>
		<g>
			<path fill="#EEEEEE" d="M410.881,513.889c0,0.429-0.286,0.715-0.715,0.715h-159.73c-0.429,0-0.715-0.286-0.715-0.715v-10.725
				c0-0.429,0.286-0.715,0.715-0.715h159.73c0.429,0,0.715,0.286,0.715,0.715V513.889z"/>
		</g>
		
			<line fill="none" stroke="#6A6865" stroke-width="0.25" stroke-miterlimit="10" x1="406.019" y1="505.738" x2="401.872" y2="511.315"/>
		
			<line fill="none" stroke="#6A6865" stroke-width="0.25" stroke-miterlimit="10" x1="401.872" y1="505.738" x2="406.019" y2="511.315"/>
		
			<line fill="none" stroke="#979695" stroke-width="0.3714" stroke-miterlimit="10" x1="268.025" y1="527.188" x2="268.025" y2="536.197"/>
		<rect x="249.721" y="527.188" fill="#4E7BA3" width="161.16" height="99.385"/>
		<rect x="250.579" y="637.583" fill="#B3B8B5" width="161.16" height="51.766"/>
		<rect x="251.008" y="696.213" fill="#56A189" width="160.302" height="22.737"/>
		<rect x="251.008" y="726.243" fill="#C15D55" width="160.302" height="23.595"/>
	</g>
</g>
</svg>
