<?xml version="1.0" encoding="utf-8"?>
<!-- Generator: Adobe Illustrator 17.0.0, SVG Export Plug-In . SVG Version: 6.00 Build 0)  -->
<!DOCTYPE svg PUBLIC "-//W3C//DTD SVG 1.1//EN" "http://www.w3.org/Graphics/SVG/1.1/DTD/svg11.dtd">
<svg version="1.1" xmlns="http://www.w3.org/2000/svg" xmlns:xlink="http://www.w3.org/1999/xlink" x="0px" y="0px" width="1000px"
	 height="1000px" viewBox="0 0 1000 1000" enable-background="new 0 0 1000 1000" xml:space="preserve">
<g id="Слой_1">
	<g id="Слой_4">
		<g id="Слой_1_2_">
			<path display="none" fill="#7E8A8B" stroke="#454A65" stroke-miterlimit="10" d="M978.3,965.5c0,6.6-5.4,12-12,12H33.7
				c-6.6,0-12-5.4-12-12v-931c0-6.6,5.4-12,12-12h932.7c6.6,0,12,5.4,12,12v931H978.3z"/>
			<circle fill="#519C80" stroke="#454A65" stroke-miterlimit="10" cx="500" cy="500" r="486.6"/>
		</g>
	</g>
	<polygon opacity="0.2" fill="#111213" points="467.387,542.237 344.859,813.591 642.414,965.426 720.986,933.64 788.473,888.17 
		837.394,848.841 884.397,798.961 910.296,766.347 934.242,720.677 959.583,653.596 977.442,589.848 988.748,530.605 
		987.896,475.004 979.553,410.372 968.263,363.464 959.555,336.197 639.133,172.693 	"/>
</g>
<g id="Слой_2">
	<circle fill="#D45749" stroke="#334150" stroke-width="20" stroke-miterlimit="10" cx="500" cy="500" r="346.386"/>
	<circle fill="#D45749" stroke="#F7F7F9" stroke-width="60" stroke-miterlimit="10" cx="500" cy="505.173" r="220.986"/>
	<circle fill="#D45749" stroke="#F7F7F9" stroke-width="60" stroke-miterlimit="10" cx="494.739" cy="500" r="81.775"/>
	
		<line fill="none" stroke="#444963" stroke-width="20" stroke-linecap="round" stroke-linejoin="round" stroke-miterlimit="10" x1="500" y1="500" x2="705.524" y2="330.049"/>
	<path fill="#E8C147" stroke="#454A65" stroke-width="10" stroke-miterlimit="10" d="M629.912,378.89c0,0,3.667-40.34-4.715-46.102
		c-8.382-5.763,91.681-83.822,91.681-83.822s24.099,56.056-5.239,73.345S629.912,378.89,629.912,378.89z"/>
	<path fill="#E8C147" stroke="#454A65" stroke-width="10" stroke-miterlimit="10" d="M647.684,391.13c0,0,40.22,4.8,44.115,14.197
		s101.052-72.25,101.052-72.25s-49.821-35.227-72.831-10.125C697.009,348.055,647.684,391.13,647.684,391.13z"/>
</g>
<g id="Слой_3">
	
		<line display="none" fill="none" stroke="#444A65" stroke-width="5" stroke-miterlimit="10" x1="406.441" y1="418.294" x2="948.341" y2="692.794"/>
	<polygon display="none" opacity="0.2" fill="#111112" points="524.116,485.128 524.116,497.382 801.93,657.024 820.644,628.109 
		538.379,485.128 	"/>
	
		<line display="none" fill="none" stroke="#444A65" stroke-width="5" stroke-miterlimit="10" x1="500" y1="105.632" x2="1041.9" y2="380.132"/>
	
		<line display="none" fill="none" stroke="#444A65" stroke-width="5" stroke-miterlimit="10" x1="214.632" y1="693.501" x2="756.532" y2="968.001"/>
</g>
</svg>
