<?xml version="1.0" encoding="utf-8"?>
<!-- Generator: Adobe Illustrator 17.0.0, SVG Export Plug-In . SVG Version: 6.00 Build 0)  -->
<!DOCTYPE svg PUBLIC "-//W3C//DTD SVG 1.1//EN" "http://www.w3.org/Graphics/SVG/1.1/DTD/svg11.dtd">
<svg version="1.1" xmlns="http://www.w3.org/2000/svg" xmlns:xlink="http://www.w3.org/1999/xlink" x="0px" y="0px" width="1000px"
	 height="1000px" viewBox="0 0 1000 1000" enable-background="new 0 0 1000 1000" xml:space="preserve">
<g id="Слой_1">
	<circle fill="#C95D45" stroke="#3B4167" stroke-width="0.9705" stroke-miterlimit="10" cx="500" cy="500" r="486.575"/>
	
		<line display="none" fill="none" stroke="#454A67" stroke-width="5" stroke-miterlimit="10" x1="532.71" y1="143.619" x2="1074.61" y2="418.119"/>
	
		<line display="none" fill="none" stroke="#454A67" stroke-width="5" stroke-miterlimit="10" x1="116.764" y1="795.4" x2="658.664" y2="1069.9"/>
</g>
<g id="Слой_5">
	<polygon opacity="0.2" fill="#111213" points="575.184,165.134 404.436,791.137 283.595,876.202 492.593,986.575 568.644,981.769 
		645.887,964.323 721.199,933.504 789.208,891.333 848.028,840.047 891.708,788.704 922.797,740.992 950.036,685.319 
		968.974,630.126 980.316,578.226 986.575,515.121 984.274,452.43 976.101,399.129 969.138,364.692 	"/>
</g>
<g id="Слой_2">
	<polyline fill="#D7C4B7" stroke="#334150" stroke-width="20" stroke-miterlimit="10" points="452.189,573.239 452.189,640.197 
		514.721,667.875 579.919,643.163 579.919,580.888 	"/>
	<g>
		<path fill="#CAE5EE" d="M469.729,644.129c-14.592-7.702-40.031-14.003-56.531-14.003h-0.463c-16.5,0-43.067,3.393-59.037,7.54
			l-128.681,33.413c-15.97,4.147-24.664,20.312-19.32,35.922l46.423,135.59c5.345,15.61,23.218,28.383,39.718,28.383h194.217
			c16.5,0,43.5,0,60,0h162.939c16.5,0,33.24-13.105,37.2-29.123l35.814-144.852c3.96-16.018-5.848-32.586-21.796-36.818
			l-84.253-22.359c-15.948-4.232-42.496-7.695-58.996-7.695h-1.424c-16.5,0-41.913,6.35-56.474,14.112l-17.87,9.526
			c-14.56,7.761-38.413,7.81-53.005,0.109L469.729,644.129z"/>
		<path fill="none" stroke="#334150" stroke-width="20" stroke-miterlimit="10" d="M469.729,644.129
			c-14.592-7.702-40.031-14.003-56.531-14.003h-0.463c-16.5,0-43.067,3.393-59.037,7.54l-128.681,33.413
			c-15.97,4.147-24.664,20.312-19.32,35.922l46.423,135.59c5.345,15.61,23.218,28.383,39.718,28.383h194.217c16.5,0,43.5,0,60,0
			h162.939c16.5,0,33.24-13.105,37.2-29.123l35.814-144.852c3.96-16.018-5.848-32.586-21.796-36.818l-84.253-22.359
			c-15.948-4.232-42.496-7.695-58.996-7.695h-1.424c-16.5,0-41.913,6.35-56.474,14.112l-17.87,9.526
			c-14.56,7.761-38.413,7.81-53.005,0.109L469.729,644.129z"/>
	</g>
	<polyline fill="#D34B4F" points="480.859,860.535 500.303,720.46 517.489,720.46 543.132,861.815 515.066,860.535 	"/>
	<polygon fill="#D34B4F" points="492.593,715.235 500.277,724.262 511.139,737.023 525.516,715.235 509.055,664.885 	"/>
	<g>
		<path fill="#D7C4B7" d="M511.14,613.682c-43.225,0-83.676-22.074-113.902-62.158c-29.592-39.24-45.889-91.26-45.889-146.477
			c0-12.148-0.814-25.052-1.675-38.713c-2.46-39.009-5.004-79.346,11.708-107.002c0.936-1.549,11.674-19.076,12.964-21.064
			c29.928-46.157,90.037-72.183,136.332-77.5c2.642-0.304,5.404-0.458,8.211-0.458c23.461,0,52.203,10.619,80.933,29.9
			c27.154,18.225,50.436,41.738,63.874,64.512c15.827,26.82,12.62,68.156,9.519,108.131c-1.174,15.135-2.283,29.431-2.283,42.194
			c0,55.216-16.297,107.236-45.889,146.477C594.814,591.607,554.363,613.682,511.14,613.682z"/>
		<path fill="#334150" d="M518.888,170.31c45.399-0.002,110.161,45.377,136.194,89.493c19.897,33.718,5.848,99.11,5.848,145.244
			c0,109.703-67.064,198.635-149.791,198.635c-82.727,0-149.791-88.932-149.791-198.635c0-46.961-11.955-106.542,8.591-140.544
			c1.088-1.8,11.661-19.047,12.795-20.795c27.471-42.366,83.941-67.822,129.084-73.007
			C514.113,170.438,516.474,170.31,518.888,170.31 M518.908,150.31h-0.01h-0.007h-0.004c-3.186,0-6.332,0.176-9.351,0.523
			c-26.003,2.986-53.797,11.781-78.262,24.763c-28.137,14.931-50.725,34.721-65.321,57.232c-1.388,2.14-12.261,19.891-13.131,21.332
			c-18.33,30.334-15.686,72.259-13.129,112.803c0.851,13.5,1.656,26.251,1.656,38.084c0,57.375,17.013,111.534,47.904,152.498
			c15.433,20.465,33.533,36.605,53.797,47.971c21.491,12.054,44.4,18.166,68.089,18.166c23.689,0,46.598-6.112,68.089-18.166
			c20.265-11.366,38.365-27.506,53.797-47.971c30.892-40.965,47.904-95.123,47.904-152.498c0-12.376,1.094-26.484,2.253-41.421
			c3.221-41.52,6.552-84.453-10.877-113.987c-14.172-24.015-38.56-48.702-66.912-67.731
			C575.043,161.536,544.328,150.315,518.908,150.31L518.908,150.31L518.908,150.31z"/>
	</g>
	<polygon fill="#CAE5EE" stroke="#334150" stroke-width="20" stroke-miterlimit="10" points="514.721,667.875 543.511,746.509 
		635.647,636.592 585.538,636.592 	"/>
	<polygon fill="#CAE5EE" stroke="#334150" stroke-width="20" stroke-miterlimit="10" points="503.661,667.875 474.87,746.509 
		382.734,636.592 432.843,636.592 	"/>
</g>
<g id="Слой_3">
	<path fill="#D6DCDC" stroke="#3B4167" stroke-width="3" stroke-miterlimit="10" d="M353.379,399.259"/>
	<g>
		<path fill="#4A322B" d="M358.671,359.84c0.295,5.492,1.766,5.657,3.268,0.366l9.171-32.305c1.502-5.291,4.075-13.915,5.717-19.164
			l2.921-9.337c1.642-5.249,5.759-13.088,9.148-17.419l6.441-8.232c3.389-4.332,10.138-9.983,14.998-12.558l4.12-2.183
			c4.86-2.575,13.315-4.682,18.789-4.682c5.474,0,14.152,1.618,19.284,3.596l6.691,2.579c5.132,1.978,12.042,7.188,15.356,11.577
			l1.361,1.803c3.314,4.39,10.466,8.708,15.893,9.597l1.962,0.321c5.428,0.889,14.367,1.752,19.864,1.918l9.437,0.285
			c5.497,0.166,13.835-2.046,18.527-4.915l4.729-2.891c4.692-2.869,11.807-8.302,15.811-12.073l0.529-0.498
			c4.003-3.771,9.518-7.856,12.255-9.078c2.737-1.221,9.476-2.221,14.976-2.221h3.574c5.5,0,13.87,2.297,18.6,5.104l3.755,2.228
			c4.73,2.807,11.128,8.826,14.219,13.375l3.847,5.663c3.091,4.549,8.08,12.04,11.086,16.645l4.153,6.361
			c3.007,4.605,6.467,12.761,7.689,18.123l1.423,6.247c1.222,5.363,3.405,13.148,4.851,17.3c1.446,4.153,2.629,3.05,2.629-2.45
			v-1.257c0-5.5-0.18-14.496-0.401-19.992l-0.582-14.498c-0.22-5.496-1.403-14.379-2.627-19.741l-0.892-3.908
			c-1.224-5.362-4.384-13.698-7.022-18.524l-1.04-1.903c-2.638-4.826-7.669-12.238-11.181-16.471l-9.954-11.997
			c-3.512-4.233-9.739-10.696-13.838-14.364l-7.035-6.295c-4.099-3.667-11.174-9.197-15.723-12.289l-10.676-7.255
			c-4.549-3.091-12.105-7.976-16.792-10.854l-5.173-3.177c-4.687-2.878-12.888-6.318-18.226-7.645l-0.141-0.035
			c-5.338-1.326-12.326-2.411-15.529-2.411c-3.203,0-9.862,0.309-14.797,0.686s-13.341,1.771-18.678,3.097l-9.085,2.256
			c-5.338,1.326-13.888,4.069-19.001,6.097l-3.608,1.431c-5.113,2.028-13.257,5.822-18.098,8.431l-3.274,1.765
			c-4.842,2.61-12.491,7.322-17,10.473l-0.42,0.294c-4.508,3.15-11.536,8.745-15.617,12.432l-15.265,13.792
			c-4.081,3.687-8.984,10.193-10.896,14.458s-5.672,11.548-8.356,16.184c-2.684,4.637-6.73,12.256-8.991,16.931
			s-4.635,12.97-5.276,18.433l-1.497,12.763c-0.641,5.463-1.165,14.432-1.165,19.932v5.569c0,5.5,0.242,14.493,0.537,19.986
			L358.671,359.84z"/>
	</g>
</g>
<g id="Слой_4">
	<g opacity="0.4">
		<path fill="#F4F9F9" d="M527.595,178.946c-8.783-0.668-15.969,12.286-15.969,28.786v604.525c0,16.5,0,33.154,0,37.008
			c0,3.855,0,7.899,0,8.988c0,1.089,13.336,4.077,29.636,6.641l9.021,1.419c16.3,2.564,43.127,4.171,59.616,3.571l86.85-3.159
			c16.489-0.6,35.757-12.093,42.817-25.54s16.077-37.555,20.038-53.573l1.963-7.938c3.96-16.018,9.042-42.497,11.292-58.843
			l3.199-23.235c2.25-16.346-8.861-33.527-24.691-38.18l-76.837-22.587c-15.83-4.653-42.27-7.894-58.756-7.202l-8.741,0.367
			c-16.485,0.692-29.974-7.439-29.974-18.07c0-10.63,9.886-28.521,21.969-39.758l4.555-4.236
			c12.083-11.236,26.918-27.736,32.967-36.665s14.79-29.192,19.425-45.028l0.59-2.015c4.635-15.836,10.351-41.475,12.703-56.977
			s4.276-38.543,4.276-51.202s-0.45-35.701-1-51.202c-0.55-15.502-6.399-38.12-12.998-50.263s-19.872-29.476-29.495-38.519
			c-9.623-9.043-26.575-22.783-37.67-30.533c-11.095-7.751-26.617-16.629-34.494-19.729S536.378,179.613,527.595,178.946z"/>
	</g>
	<g>
		<path fill="#0F1011" d="M703.723,398.507c0,16.5-1.182,32.64-2.627,35.867c-1.445,3.227-14.39,5.867-20.847,5.867
			c-6.457,0-14.38-1.182-17.607-2.627c-3.227-1.445-5.867-22.607-5.867-39.107v-17.034c0-16.5,1.182-32.64,2.627-35.867
			c1.445-3.227,14.39-5.867,20.847-5.867c6.457,0,14.38,1.182,17.607,2.627c3.227,1.445,5.867,22.607,5.867,39.107V398.507z"/>
	</g>
	<g>
		<path fill="none" stroke="#0F1011" stroke-width="20" stroke-linecap="round" stroke-linejoin="round" stroke-miterlimit="10" d="
			M675.145,429.728c0,0-1.482,72.339-15.953,80.887c-14.472,8.548-132.626,35.799-159.191,17.2"/>
	</g>
	<g>
		<ellipse fill="#0F1011" cx="514.721" cy="534.178" rx="47.544" ry="19.712"/>
	</g>
	<g>
		<path fill="none" stroke="#111112" stroke-width="30" stroke-linecap="round" stroke-linejoin="round" stroke-miterlimit="10" d="
			M676.903,347.924c0,0,0-11.14,0-24.756s-1.946-32.963-4.325-42.994c-2.379-10.031-7.84-24.487-12.136-32.123
			c-4.296-7.637-13.222-18.858-19.836-24.936c-6.613-6.078-19.548-16.789-28.743-23.803c-9.195-7.013-22.329-16.408-29.187-20.877
			c-6.857-4.469-20.246-9.43-29.753-11.025c-9.507-1.595-27.869-2.274-40.805-1.509c-12.936,0.765-34.486,5.598-47.889,10.741
			s-34.188,15.727-46.189,23.519c-12.001,7.793-27.557,21.437-34.571,30.32c-7.013,8.883-16.832,23.93-21.819,33.437
			c-4.987,9.507-10.47,25.319-12.185,35.137c-1.714,9.819-3.117,26.013-3.117,35.987c0,9.974,0,28.504,0,41.176s0,23.04,0,23.04"/>
	</g>
</g>
<g id="Слой_6">
</g>
</svg>
