<?xml version="1.0" encoding="utf-8"?>
<!-- Generator: Adobe Illustrator 17.0.0, SVG Export Plug-In . SVG Version: 6.00 Build 0)  -->
<!DOCTYPE svg PUBLIC "-//W3C//DTD SVG 1.1//EN" "http://www.w3.org/Graphics/SVG/1.1/DTD/svg11.dtd">
<svg version="1.1" xmlns="http://www.w3.org/2000/svg" xmlns:xlink="http://www.w3.org/1999/xlink" x="0px" y="0px" width="1000px"
	 height="1000px" viewBox="0 0 1000 1000" style="enable-background:new 0 0 1000 1000;" xml:space="preserve">
<style type="text/css">
	.st0{display:none;}
	.st1{fill:#509383;stroke:#3B4167;stroke-miterlimit:10;}
	.st2{opacity:0.2;fill:#0D0F0F;stroke:#3B4167;stroke-width:1.026;stroke-miterlimit:10;}
	.st3{fill:#FBF6C5;stroke:#334150;stroke-width:20;stroke-miterlimit:10;}
	.st4{fill:#E49744;}
	.st5{fill:none;stroke:#A14944;stroke-width:5;stroke-linecap:round;stroke-miterlimit:10;}
	.st6{fill:none;stroke:#334150;stroke-width:7.8505;stroke-linecap:round;stroke-miterlimit:10;}
	.st7{fill:none;stroke:#334150;stroke-width:19.8058;stroke-miterlimit:10;}
</style>
<g id="Слой_1" class="st0">
</g>
<g id="Слой_3">
</g>
<g id="Слой_2">
	<path class="st1" d="M976.3,964.3c0,6.6-5.4,12-12,12H31.7c-6.6,0-12-5.4-12-12v-931c0-6.6,5.4-12,12-12h932.7c6.6,0,12,5.4,12,12
		V964.3z"/>
</g>
<g id="Слой_9">
	<polyline class="st2" points="599.6,976.7 962.4,974.2 976.3,959.1 976.3,463.5 936.7,439.3 689.9,260.8 339.6,732.6 319.9,727.2 	
		"/>
</g>
<g id="Слой_4">
	<circle class="st3" cx="500" cy="500" r="304.8"/>
</g>
<g id="Слой_5">
</g>
<g id="Слой_6">
	<circle class="st4" cx="498" cy="259.7" r="21.8"/>
	<circle class="st4" cx="249.3" cy="498.8" r="21.8"/>
	<circle class="st4" cx="731.9" cy="500" r="21.8"/>
	<circle class="st4" cx="500" cy="734.8" r="21.8"/>
</g>
<g id="Слой_7">
	<line class="st5" x1="500" y1="500" x2="319.9" y2="320"/>
	<polyline class="st6" points="500,500 500,345.9 500,323.3 	"/>
	<g>
		<path class="st7" d="M506.2,500.2c0,0-1.4-0.5-3.1-1.1c-1.7-0.6,10,3.7,26.1,9.6l65.2,23.9c16,5.9,27.8,10.2,26.2,9.6
			c-1.6-0.6-3-1.1-3-1.1"/>
	</g>
</g>
<g id="Слой_8">
</g>
</svg>
