<?xml version="1.0" encoding="utf-8"?>
<!-- Generator: Adobe Illustrator 17.0.0, SVG Export Plug-In . SVG Version: 6.00 Build 0)  -->
<!DOCTYPE svg PUBLIC "-//W3C//DTD SVG 1.1//EN" "http://www.w3.org/Graphics/SVG/1.1/DTD/svg11.dtd">
<svg version="1.1" xmlns="http://www.w3.org/2000/svg" xmlns:xlink="http://www.w3.org/1999/xlink" x="0px" y="0px" width="1000px"
	 height="1000px" viewBox="0 0 1000 1000" enable-background="new 0 0 1000 1000" xml:space="preserve">
<g id="Слой_1">
	<circle fill="#4C7EAA" stroke="#3B4167" stroke-width="0.9705" stroke-miterlimit="10" cx="500" cy="500" r="486.575"/>
	
		<line display="none" fill="none" stroke="#454A67" stroke-width="5" stroke-miterlimit="10" x1="578.803" y1="114.137" x2="1120.703" y2="388.637"/>
	
		<line display="none" fill="none" stroke="#454A67" stroke-width="5" stroke-miterlimit="10" x1="288.803" y1="310.917" x2="830.703" y2="585.417"/>
	
		<line display="none" fill="none" stroke="#454A67" stroke-width="5" stroke-miterlimit="10" x1="135.164" y1="692.4" x2="677.064" y2="966.9"/>
</g>
<g id="Слой_4">
	<polyline opacity="0.2" fill="#101111" stroke="#454A67" stroke-width="5" stroke-miterlimit="10" points="590.439,120.031 
		470.424,402.917 318.509,325.964 199.002,589.458 149.855,559.804 145.474,697.623 661.635,959.084 733.714,926.865 
		795.266,886.777 846.724,841.365 894.233,785.246 932.703,722.748 968.467,631.965 980.496,577.084 986.575,500 981.969,432.795 
		971.36,378.802 957.018,332.613 943.097,298.671 	"/>
</g>
<g id="Слой_2">
	<polyline fill="#4F3C28" stroke="#3B4167" stroke-width="20" stroke-miterlimit="10" points="318.509,354.474 162.368,661.491 
		318.509,344.852 465.877,666.56 152.295,666.56 	"/>
	<polyline fill="#4F3C28" stroke="#3B4167" stroke-width="20" stroke-miterlimit="10" points="416.646,515.029 590.439,142.438 
		849.753,654.061 471.951,675.199 406.114,524.01 	"/>
	
		<line fill="none" stroke="#3B4167" stroke-width="20" stroke-miterlimit="10" x1="318.509" y1="354.474" x2="465.877" y2="661.491"/>
	
		<line fill="none" stroke="#3B4167" stroke-width="20" stroke-miterlimit="10" x1="406.114" y1="536.985" x2="590.439" y2="152.719"/>
	<polyline fill="#F5F6F7" points="641.597,265.92 615.551,286.957 590.439,256.904 563.46,287.959 543.736,250.082 590.439,152.719 
		592.509,156.722 853.596,661.491 	"/>
	<path fill="none" stroke="#3B4167" stroke-width="20" stroke-miterlimit="10" d="M353.88,750.074"/>
	<polygon fill="#F5F6F7" points="318.509,462.129 297.662,441.517 274.401,463.25 318.509,344.852 455.335,654.772 343.565,436.412 
			"/>
	<path fill="#F5F6F7" stroke="#3B4167" stroke-width="20" stroke-miterlimit="10" d="M821.37,388.637"/>
	<polyline opacity="0.2" fill="#F5F6F7" points="590.439,260.117 590.439,244.997 633.856,654.772 849.753,643.603 627.934,241.561 
			"/>
	<polyline opacity="0.2" fill="#F7F6F5" points="318.509,430.084 320.803,661.491 461.677,657.39 346.749,408.819 	"/>
</g>
<g id="Слой_3">
	<polyline fill="#53AD6E" stroke="#444A67" stroke-width="10" stroke-miterlimit="10" points="894.233,661.081 822.308,508.384 
		765.559,661.081 894.233,661.081 	"/>
	<polyline fill="#4A332D" stroke="#444A67" stroke-width="10" stroke-miterlimit="10" points="834.803,661.081 834.803,683.917 
		816.26,683.917 816.26,661.081 	"/>
	<path fill="#52A862" stroke="#444A67" stroke-width="10" stroke-miterlimit="10" d="M822.308,508.384"/>
	<path fill="#52A862" stroke="#444A67" stroke-width="2" stroke-miterlimit="10" d="M892.635,520.024"/>
	<polygon opacity="0.4" fill="#FDFEFD" points="822.308,517.342 825.532,680.366 843.69,658.479 886.601,657.138 	"/>
	<polyline fill="#53AD6E" stroke="#444A67" stroke-width="10" stroke-miterlimit="10" points="764.092,694.14 702.201,569.789 
		653.37,694.14 764.092,694.14 	"/>
	<polyline fill="#4A332D" stroke="#444A67" stroke-width="10" stroke-miterlimit="10" points="712.953,694.14 712.953,718.004 
		696.997,718.004 696.997,694.14 	"/>
	<polygon opacity="0.4" fill="#FDFEFD" points="702.201,577.084 704.976,714.69 720.6,692.022 757.524,690.93 	"/>
	<polyline fill="#53AD6E" stroke="#444A67" stroke-width="10" stroke-miterlimit="10" points="201.971,682.17 149.855,571.53 
		108.737,682.17 201.971,682.17 	"/>
	<polyline fill="#4A332D" stroke="#444A67" stroke-width="10" stroke-miterlimit="10" points="158.91,682.17 158.91,702.232 
		145.474,702.232 145.474,682.17 	"/>
	<polygon opacity="0.4" fill="#FDFEFD" points="149.855,578.02 152.192,699.247 165.348,680.285 196.441,679.313 	"/>
	<polyline fill="#53AD6E" stroke="#444A67" stroke-width="10" stroke-miterlimit="10" points="336.057,703.543 264.131,550.847 
		207.383,703.543 336.057,703.543 	"/>
	<polyline fill="#4A332D" stroke="#444A67" stroke-width="10" stroke-miterlimit="10" points="276.627,703.543 276.627,727.725 
		258.084,727.725 258.084,703.543 	"/>
	<polygon opacity="0.4" fill="#FDFEFD" points="264.131,559.804 267.356,723.791 285.513,700.941 328.424,699.6 	"/>
</g>
</svg>
